<svg xmlns="http://www.w3.org/2000/svg" xmlns:xlink="http://www.w3.org/1999/xlink" viewBox="0 0 3710 3710"><defs><style>.cls-1{isolation:isolate;}.cls-11,.cls-13,.cls-2{fill:#fff;}.cls-3{opacity:0.33;fill:url(#linear-gradient);}.cls-4{opacity:0.84;}.cls-5{fill:url(#linear-gradient-2);}.cls-6{fill:url(#linear-gradient-3);}.cls-7{fill:url(#linear-gradient-4);}.cls-8{fill:url(#linear-gradient-5);}.cls-9{fill:#91b3fa;}.cls-10{fill:#7d97f4;}.cls-11{opacity:0.17;}.cls-12{opacity:0.68;}.cls-13{mix-blend-mode:soft-light;}.cls-14{fill:url(#linear-gradient-6);}.cls-15{fill:url(#linear-gradient-7);}.cls-16{fill:url(#linear-gradient-8);}.cls-17{fill:url(#linear-gradient-9);}.cls-18{fill:url(#linear-gradient-10);}.cls-19{fill:url(#linear-gradient-11);}.cls-20{fill:url(#linear-gradient-12);}.cls-21{fill:url(#linear-gradient-13);}.cls-22{fill:url(#linear-gradient-14);}.cls-23{fill:url(#linear-gradient-15);}.cls-24{fill:url(#linear-gradient-16);}.cls-25{fill:url(#linear-gradient-17);}.cls-26{fill:url(#linear-gradient-18);}.cls-27{fill:url(#linear-gradient-19);}.cls-28{fill:url(#linear-gradient-20);}.cls-29{fill:url(#linear-gradient-21);}.cls-30{fill:url(#linear-gradient-22);}.cls-31{fill:url(#linear-gradient-23);}.cls-32{fill:url(#linear-gradient-24);}.cls-33{fill:url(#linear-gradient-25);}.cls-34{fill:url(#linear-gradient-26);}.cls-35{fill:url(#linear-gradient-27);}.cls-36{fill:url(#linear-gradient-28);}.cls-37{fill:url(#linear-gradient-29);}.cls-38{fill:url(#linear-gradient-30);}.cls-39{fill:url(#linear-gradient-31);}.cls-40{fill:url(#linear-gradient-32);}.cls-41{fill:url(#linear-gradient-33);}.cls-42{fill:url(#linear-gradient-34);}.cls-43{fill:url(#linear-gradient-35);}.cls-44{fill:url(#linear-gradient-36);}.cls-45{fill:url(#linear-gradient-37);}.cls-46{fill:#bdd0fb;}.cls-47{fill:url(#linear-gradient-38);}.cls-48{fill:url(#linear-gradient-39);}.cls-49{fill:url(#linear-gradient-40);}.cls-50{fill:url(#linear-gradient-41);}.cls-51{fill:url(#linear-gradient-42);}.cls-52{fill:url(#linear-gradient-43);}.cls-53{fill:url(#linear-gradient-44);}.cls-54{fill:url(#linear-gradient-45);}.cls-55{fill:url(#linear-gradient-46);}.cls-56{fill:url(#linear-gradient-47);}.cls-57{fill:url(#linear-gradient-48);}.cls-58{fill:url(#linear-gradient-49);}.cls-59{fill:url(#linear-gradient-50);}.cls-60{fill:url(#linear-gradient-51);}.cls-61{fill:url(#linear-gradient-52);}.cls-62{fill:url(#linear-gradient-53);}.cls-63{fill:url(#linear-gradient-54);}.cls-64{fill:url(#linear-gradient-55);}.cls-65{fill:url(#linear-gradient-56);}.cls-66{fill:url(#linear-gradient-57);}.cls-67{fill:url(#linear-gradient-58);}.cls-68{fill:url(#linear-gradient-59);}.cls-69{fill:url(#linear-gradient-60);}.cls-70{fill:url(#linear-gradient-61);}.cls-71{fill:url(#linear-gradient-62);}.cls-72{fill:url(#linear-gradient-63);}.cls-73{fill:url(#linear-gradient-64);}.cls-74{fill:url(#linear-gradient-65);}.cls-75{fill:url(#linear-gradient-66);}.cls-76{fill:url(#linear-gradient-67);}.cls-77{fill:url(#linear-gradient-68);}.cls-78{fill:url(#linear-gradient-69);}.cls-79{fill:url(#linear-gradient-70);}.cls-80{fill:url(#linear-gradient-71);}.cls-81{fill:url(#linear-gradient-72);}</style><linearGradient id="linear-gradient" x1="3477.82" y1="3288.76" x2="1391.16" y2="1462.93" gradientUnits="userSpaceOnUse"><stop offset="0" stop-color="#ff928e"/><stop offset="1" stop-color="#fe7062"/></linearGradient><linearGradient id="linear-gradient-2" x1="650.51" y1="1138.97" x2="1348.02" y2="1138.97" xlink:href="#linear-gradient"/><linearGradient id="linear-gradient-3" x1="774.44" y1="1152.94" x2="1241.66" y2="1152.94" xlink:href="#linear-gradient"/><linearGradient id="linear-gradient-4" x1="456.88" y1="1715.98" x2="1366" y2="1715.98" xlink:href="#linear-gradient"/><linearGradient id="linear-gradient-5" x1="609.32" y1="1457.72" x2="1109.25" y2="1457.72" xlink:href="#linear-gradient"/><linearGradient id="linear-gradient-6" x1="3015.72" y1="3273.05" x2="3120.03" y2="3273.05" gradientTransform="translate(-1193.78)" gradientUnits="userSpaceOnUse"><stop offset="0" stop-color="#09005d"/><stop offset="1" stop-color="#1a0f91"/></linearGradient><linearGradient id="linear-gradient-7" x1="2698.76" y1="4551.77" x2="2875.34" y2="3958.06" xlink:href="#linear-gradient-6"/><linearGradient id="linear-gradient-8" x1="1623.55" y1="3150.64" x2="1602.73" y2="3332.39" gradientTransform="matrix(-1, 0, 0, 1, 3479.72, 0)" gradientUnits="userSpaceOnUse"><stop offset="0" stop-color="#febbba"/><stop offset="1" stop-color="#ff928e"/></linearGradient><linearGradient id="linear-gradient-9" x1="-85.95" y1="9933.33" x2="90.63" y2="9339.61" gradientTransform="matrix(-1, 0, 0, 1, 3479.72, 0)" xlink:href="#linear-gradient-6"/><linearGradient id="linear-gradient-10" x1="1811.18" y1="3274.53" x2="1957.98" y2="3274.53" gradientTransform="matrix(-1, 0, 0, 1, 3479.72, 0)" xlink:href="#linear-gradient-6"/><linearGradient id="linear-gradient-11" x1="1842.93" y1="3173.9" x2="1823.45" y2="3343.91" xlink:href="#linear-gradient-8"/><linearGradient id="linear-gradient-12" x1="-89.17" y1="3168.46" x2="-65.8" y2="2436.22" gradientTransform="matrix(-1, 0, 0, 1, 1667.88, 0)" xlink:href="#linear-gradient-6"/><linearGradient id="linear-gradient-13" x1="2473.65" y1="2026.91" x2="2566.64" y2="3563.25" gradientTransform="translate(-694.25)" xlink:href="#linear-gradient"/><linearGradient id="linear-gradient-14" x1="-173.44" y1="1998.47" x2="-80.06" y2="1998.47" gradientTransform="matrix(-1, 0, 0, 1, 1667.88, 0)" xlink:href="#linear-gradient-8"/><linearGradient id="linear-gradient-15" x1="9634.54" y1="-1890.51" x2="9798.13" y2="-1930.33" gradientTransform="matrix(-0.88, -0.48, -0.48, 0.88, 1534.21, 1095.14)" xlink:href="#linear-gradient-8"/><linearGradient id="linear-gradient-16" x1="-672.65" y1="541.67" x2="-504.14" y2="541.67" gradientTransform="matrix(-0.88, -0.48, -0.48, 0.88, 1534.21, 1095.14)" xlink:href="#linear-gradient-6"/><linearGradient id="linear-gradient-17" x1="9628.79" y1="-1914.22" x2="9792.39" y2="-1954.03" gradientTransform="matrix(-0.88, -0.48, -0.48, 0.88, 1534.21, 1095.14)" xlink:href="#linear-gradient-8"/><linearGradient id="linear-gradient-18" x1="2251.83" y1="2033.28" x2="2347.66" y2="3616.43" gradientTransform="translate(-694.25)" xlink:href="#linear-gradient"/><linearGradient id="linear-gradient-19" x1="2701.4" y1="2013.13" x2="2794.39" y2="3549.47" gradientTransform="translate(-694.25)" xlink:href="#linear-gradient"/><linearGradient id="linear-gradient-20" x1="2446.77" y1="1068.09" x2="2235.12" y2="1471.25" gradientTransform="matrix(1, 0, 0, 1, 0, 0)" xlink:href="#linear-gradient-8"/><linearGradient id="linear-gradient-21" x1="2054.79" y1="1266" x2="1841.76" y2="1628.74" gradientTransform="translate(-229.15)" xlink:href="#linear-gradient-8"/><linearGradient id="linear-gradient-22" x1="3728.16" y1="2459.06" x2="3388.99" y2="1984.22" gradientTransform="matrix(-1, 0, 0, 1, 4550.7, 0)" xlink:href="#linear-gradient-6"/><linearGradient id="linear-gradient-23" x1="-1191.67" y1="1791.36" x2="-1010.37" y2="2203.87" gradientTransform="matrix(-0.98, -0.21, -0.21, 0.98, 560.76, -113.52)" gradientUnits="userSpaceOnUse"><stop offset="0" stop-color="#a22b25"/><stop offset="1" stop-color="#c0423c"/></linearGradient><linearGradient id="linear-gradient-24" x1="-448.62" y1="3277.14" x2="-365.4" y2="3277.14" gradientTransform="matrix(-1, 0, 0, 1, 310.34, 0)" xlink:href="#linear-gradient-6"/><linearGradient id="linear-gradient-25" x1="-800.26" y1="3605.3" x2="-680.5" y2="2205.64" gradientTransform="matrix(-1, 0, 0, 1, 310.34, 0)" xlink:href="#linear-gradient-23"/><linearGradient id="linear-gradient-26" x1="-835.25" y1="3261.94" x2="-700.59" y2="3261.94" gradientTransform="matrix(-1, 0, 0, 1, 310.34, 0)" xlink:href="#linear-gradient-6"/><linearGradient id="linear-gradient-27" x1="-559.36" y1="3626.13" x2="-439.57" y2="2226.09" gradientTransform="matrix(-1, 0, 0, 1, 310.34, 0)" xlink:href="#linear-gradient-23"/><linearGradient id="linear-gradient-28" x1="2427.31" y1="-5812.74" x2="2245.08" y2="-5360.53" gradientTransform="matrix(-1, 0, 0, 1, 310.34, 0)" xlink:href="#linear-gradient"/><linearGradient id="linear-gradient-29" x1="2024.06" y1="1521.03" x2="1767.58" y2="1811.25" gradientUnits="userSpaceOnUse"><stop offset="0" stop-color="#4f52ff"/><stop offset="1" stop-color="#4042e2"/></linearGradient><linearGradient id="linear-gradient-30" x1="952.25" y1="2360.15" x2="1190.16" y2="1803.35" gradientTransform="matrix(1, 0, 0, 1, 0, 0)" xlink:href="#linear-gradient-23"/><linearGradient id="linear-gradient-31" x1="-1025.74" y1="1964.92" x2="-829.45" y2="1615.6" gradientTransform="matrix(-0.98, -0.19, -0.19, 0.98, 539.43, -99.24)" xlink:href="#linear-gradient-23"/><linearGradient id="linear-gradient-32" x1="9784.41" y1="16788.41" x2="9445.24" y2="16313.57" gradientTransform="matrix(-0.98, -0.19, -0.19, 0.98, 539.43, -99.24)" xlink:href="#linear-gradient-6"/><linearGradient id="linear-gradient-33" x1="-989.46" y1="1993.05" x2="-793.18" y2="1643.72" gradientTransform="matrix(-0.98, -0.19, -0.19, 0.98, 539.43, -99.24)" xlink:href="#linear-gradient-23"/><linearGradient id="linear-gradient-34" x1="-1239.11" y1="1775.96" x2="-1116.18" y2="2055.64" xlink:href="#linear-gradient-23"/><linearGradient id="linear-gradient-35" x1="-24.15" y1="1778.26" x2="23" y2="1778.26" gradientTransform="translate(1475.77)" xlink:href="#linear-gradient-23"/><linearGradient id="linear-gradient-36" x1="766.95" y1="2498.12" x2="1344" y2="1652.8" gradientTransform="matrix(1, 0, 0, 1, 0, 0)" xlink:href="#linear-gradient-23"/><linearGradient id="linear-gradient-37" x1="3125.93" y1="1824.73" x2="3224.57" y2="1961.09" gradientTransform="matrix(-1, 0, 0, 1, 4550.7, 0)" xlink:href="#linear-gradient-23"/><linearGradient id="linear-gradient-38" x1="7243.59" y1="3629.42" x2="7249.88" y2="3440.74" gradientTransform="translate(-4009.63)" xlink:href="#linear-gradient-29"/><linearGradient id="linear-gradient-39" x1="7467.77" y1="3146.54" x2="7079.02" y2="3451.78" gradientTransform="translate(-4009.63)" xlink:href="#linear-gradient-6"/><linearGradient id="linear-gradient-40" x1="-2562.6" y1="3151.21" x2="-2583.7" y2="3335.36" gradientTransform="matrix(-1, 0, 0, 1, 663.87, 0)" xlink:href="#linear-gradient-23"/><linearGradient id="linear-gradient-41" x1="-2204.38" y1="3237.13" x2="-2580.3" y2="3532.31" gradientTransform="matrix(-1, 0, 0, 1, 663.87, 0)" xlink:href="#linear-gradient-6"/><linearGradient id="linear-gradient-42" x1="-2312.79" y1="3746.1" x2="-2306.5" y2="3557.42" gradientTransform="matrix(-1, 0, 0, 1, 663.87, 0)" xlink:href="#linear-gradient-29"/><linearGradient id="linear-gradient-43" x1="-2340.33" y1="3174.77" x2="-2360.06" y2="3347.03" gradientTransform="matrix(-1, 0, 0, 1, 663.87, 0)" xlink:href="#linear-gradient-23"/><linearGradient id="linear-gradient-44" x1="-3050.39" y1="2097.18" x2="-3931.78" y2="3493.66" gradientTransform="matrix(-1, 0, 0, 1, -435.6, 0)" xlink:href="#linear-gradient-29"/><linearGradient id="linear-gradient-45" x1="-4359.4" y1="1983.81" x2="-4264.78" y2="1983.81" gradientTransform="matrix(-1, 0, 0, 1, -1147.97, 0)" xlink:href="#linear-gradient-23"/><linearGradient id="linear-gradient-46" x1="3754.45" y1="690.98" x2="3572.21" y2="1143.19" xlink:href="#linear-gradient"/><linearGradient id="linear-gradient-47" x1="4790.73" y1="-763.54" x2="4608.49" y2="-311.32" gradientTransform="translate(-847.27 -114.55) rotate(-9.14)" xlink:href="#linear-gradient"/><linearGradient id="linear-gradient-48" x1="5853.07" y1="1758.88" x2="5799.05" y2="1936.37" gradientTransform="translate(-3045)" xlink:href="#linear-gradient-23"/><linearGradient id="linear-gradient-49" x1="3959.53" y1="773.62" x2="3777.29" y2="1225.83" xlink:href="#linear-gradient"/><linearGradient id="linear-gradient-50" x1="3529.29" y1="1853.79" x2="3374.44" y2="2178.98" gradientTransform="matrix(1, 0, 0, 1, 0, 0)" xlink:href="#linear-gradient-23"/><linearGradient id="linear-gradient-51" x1="8037.76" y1="6922.52" x2="8105.25" y2="6661.55" gradientTransform="matrix(-1, 0, 0, 1, 12479.12, 0)" xlink:href="#linear-gradient-23"/><linearGradient id="linear-gradient-52" x1="9275.87" y1="1785.08" x2="9407.43" y2="1954.47" gradientTransform="matrix(-1, 0, 0, 1, 12479.12, 0)" xlink:href="#linear-gradient-6"/><linearGradient id="linear-gradient-53" x1="7992.4" y1="6910.79" x2="8059.89" y2="6649.82" gradientTransform="matrix(-1, 0, 0, 1, 12479.12, 0)" xlink:href="#linear-gradient-23"/><linearGradient id="linear-gradient-54" x1="-6003.23" y1="5256.84" x2="-6184.01" y2="5403.37" gradientTransform="translate(1012.7 9790.13) rotate(134.77)" xlink:href="#linear-gradient-23"/><linearGradient id="linear-gradient-55" x1="4967.6" y1="3177.55" x2="5157.78" y2="3610.25" gradientTransform="translate(-3308.16 -113.52) rotate(-12.16)" xlink:href="#linear-gradient-8"/><linearGradient id="linear-gradient-56" x1="4917.84" y1="3161.39" x2="5046.79" y2="3454.77" gradientTransform="translate(-3308.16 -113.52) rotate(-12.16)" xlink:href="#linear-gradient-8"/><linearGradient id="linear-gradient-57" x1="-6332.34" y1="1830.85" x2="-6282.88" y2="1830.85" gradientTransform="matrix(-1, 0, 0, 1, -4223.18, 0)" xlink:href="#linear-gradient-8"/><linearGradient id="linear-gradient-58" x1="9435.43" y1="1879.59" x2="9538.9" y2="2022.62" gradientTransform="translate(-7298.1)" xlink:href="#linear-gradient-8"/><linearGradient id="linear-gradient-59" x1="2602.91" y1="2374.76" x2="2488.17" y2="1976.54" gradientTransform="matrix(1, 0, 0, 1, 0, 0)" xlink:href="#linear-gradient-6"/><linearGradient id="linear-gradient-60" x1="2809.86" y1="2952.69" x2="2812.96" y2="3479.28" xlink:href="#linear-gradient-29"/><linearGradient id="linear-gradient-61" x1="1929.82" y1="3605.15" x2="2045.15" y2="2257.32" gradientTransform="translate(503.33)" xlink:href="#linear-gradient-8"/><linearGradient id="linear-gradient-62" x1="2462.59" y1="3048.87" x2="2465.68" y2="3479.43" xlink:href="#linear-gradient-29"/><linearGradient id="linear-gradient-63" x1="2161.8" y1="3625.21" x2="2277.15" y2="2277.02" gradientTransform="translate(503.33)" xlink:href="#linear-gradient-8"/><linearGradient id="linear-gradient-64" x1="2307.91" y1="2277.34" x2="2558.89" y2="2277.34" xlink:href="#linear-gradient"/><linearGradient id="linear-gradient-65" x1="2651.07" y1="3086.29" x2="2554.89" y2="2812.95" gradientTransform="matrix(1, 0, 0, 1, 0, 0)" xlink:href="#linear-gradient-6"/><linearGradient id="linear-gradient-66" x1="1917.18" y1="2276.59" x2="1938.84" y2="2118.11" gradientTransform="translate(503.33)" xlink:href="#linear-gradient-8"/><linearGradient id="linear-gradient-67" x1="1862.5" y1="2072.26" x2="2051.51" y2="1735.88" gradientTransform="translate(503.33)" xlink:href="#linear-gradient-8"/><linearGradient id="linear-gradient-68" x1="2591.79" y1="2377.96" x2="2477.05" y2="1979.75" gradientTransform="matrix(1, 0, 0, 1, 0, 0)" xlink:href="#linear-gradient-6"/><linearGradient id="linear-gradient-69" x1="1891.78" y1="2100.82" x2="2080.79" y2="1764.45" gradientTransform="translate(503.33)" xlink:href="#linear-gradient-8"/><linearGradient id="linear-gradient-70" x1="3701.92" y1="2129.51" x2="2813" y2="4367.87" gradientTransform="translate(-1038.79)" xlink:href="#linear-gradient-8"/><linearGradient id="linear-gradient-71" x1="96.52" y1="343.18" x2="43.7" y2="516.73" gradientTransform="matrix(-0.89, -0.46, -0.46, 0.89, 2999.61, 1500.27)" xlink:href="#linear-gradient-8"/><linearGradient id="linear-gradient-72" x1="2100.38" y1="1750.24" x2="1919.6" y2="1896.77" gradientTransform="matrix(1, 0, 0, 1, 0, 0)" xlink:href="#linear-gradient-8"/></defs><g class="cls-1"><g id="Background"><rect class="cls-2" width="3710" height="3710"/></g><g id="Illustration"><path class="cls-3" d="M3129.82,2337c-271.11,630.46-993.28,983.65-1619.55,888.38-101.91-15.51-381.29-61.69-628.65-279.54-476.17-419.4-578-1249.86-193.89-1835.1,279.57-426,780.72-667.42,1256.92-655.34,102.57,2.6,495.67,18.64,841.13,300,50.74,41.32,162.66,139.52,263.53,295.3C3286.15,1416.51,3306.51,1926.15,3129.82,2337Z" transform="translate(13.68 -5.37)"/><g class="cls-4"><path class="cls-5" d="M1201.21,1821.31s7-296-129.31-375.26S676.31,1317.29,666.6,892.22c-5.69-248.85-11.85-357.66-16-405.1a28,28,0,0,1,33.09-30c129.14,24.33,548.63,124.46,636.58,410.79C1424.56,1207.34,1201.21,1821.31,1201.21,1821.31Z" transform="translate(13.68 -5.37)"/><path class="cls-6" d="M783.58,575.38c141.75,126.42,305.65,350.16,393,573.9,11.21,36.87,44,115.29,58.26,254.61,12.72,116.2,6.4,239-9,320.26a9.48,9.48,0,0,1-11.07,7.54c-8.84-1.68-7.66-11.18-7.58-10.88,17.62-138.87,10.31-311.71-30.07-467.66C1125.54,1061.66,1010.5,876,891.51,718.53L879.26,703c-92.18-118.39-111.59-119.27-103-127.52A5.39,5.39,0,0,1,783.58,575.38Z" transform="translate(13.68 -5.37)"/></g><path class="cls-7" d="M1364.68,2329.34c19.75,9.68-187-250.24-251.7-658.46-30.51-192.37-30.9-433.39-140.48-526.27-91.2-77.3-401.55-28.49-503.09-9.95a15.23,15.23,0,0,0-7.08,26.64c48.69,40.9,152.86,137.36,180,234.58C678.11,1524,799.94,1605.53,909,1627.58s169.74,43.47,222.87,217.89S1308.57,2301.83,1364.68,2329.34Z" transform="translate(13.68 -5.37)"/><path class="cls-8" d="M612.23,1188.8c129.55,5.43,268.62,64.53,339.19,175.38l6.66,10.58c15.38,24.81,102.57,201.13,151,347.3a3.48,3.48,0,0,1-2.21,4.39,3.54,3.54,0,0,1-4.35-2.08c-33.74-82.57-82.2-187.26-120.79-265.55-41.39-85.42-70.35-143.28-164.75-198.69-105.07-59.68-205.45-65.83-205.15-65.77a2.77,2.77,0,0,1-2.49-3A2.8,2.8,0,0,1,612.23,1188.8Z" transform="translate(13.68 -5.37)"/><ellipse class="cls-9" cx="1919.08" cy="1903.71" rx="1174.26" ry="1267.5" transform="translate(-53.29 3732.09) rotate(-87.49)"/><path class="cls-10" d="M962.91,1125.75c-27.82,44.66-49.27,94.94-45.25,147.41,4.67,60.75,35.42,117.64,37,178.55,2.68,103.29-77.07,189.76-101.94,290-27.8,112.11,77,239.84,118.79,302.41s23.82-50.77,49.14-95,79.94,186,165.25,236.48c45.76,27.1,99.46,45.14,132.38,86.92,48,60.94,34.7,147.66,27.5,224.9s3.58,171.38,73.15,205.71c41,20.22,93,13.38,130,40.22,64.91,47.13,33.9,149.89,59.63,225.87,28,82.63,83.43,83.72,169.25,101.24s-10.81-171,29.39-236.91c21.13-34.63,53.39-62.19,70-99.18,23.11-51.3,16.6-119.84,61.44-153.83,33.61-25.48,80.38-18.59,122.55-19s93.47-18.67,98.25-60.57c4.25-37.18-33-66.83-69.39-75.45s-75.22-4.5-111-15.52c-102.3-31.49-150-174.64-256.84-181.34-91.32-5.73-167.8,96.77-257.53,78.87-50-10-84.26-54.28-121.39-89.26-47.69-44.92-106.89-78.64-144.76-132.11s-44.31-139,9.56-176.24c40-27.71,96.88-16.46,136.42,11.93s66.46,70.52,95.49,109.58c9,12.07,19.12,24.57,33.47,29.06,38.6,12.09,66.77-42.23,57.53-81.61s-37.06-74-38.36-114.46c-2.31-71.26,74.43-116.47,141.75-140s146.66-51.47,166.45-120c7-24.19,5.16-50.81,15.83-73.62,35.35-75.6,221.93-113.34,177.34-157.18s-186.16-53.36-213.72-141.65c-9.87-31.61-20-73.38-53-76.44-53.7-5-84.35,61.49-129.39,72.9-21.38,5.42-23.44,41.74-22.61,86.41a58.72,58.72,0,0,1-117.42,2.22,90.68,90.68,0,0,1,6.83-36.33c8.67-21.26,25.14-38.26,41.75-54.11,69.28-66.15,276-138.84,232.72-167s-251.06-105.87-282.06-63,20.27,6.57,32.77,57.43-153.7,44-230.55,66.07c-12.69,3.63-26.76,7.17-38.64,1.42-13.28-6.43-18.87-21.88-26.08-34.76-38.59-69-167-24.2-167-24.2S987.77,1085.84,962.91,1125.75Z" transform="translate(13.68 -5.37)"/><path class="cls-10" d="M1543.54,812.83c-18.65,34.79,36.84,34.22,42.36,73.31,49.95,5.44,70.46-73.31,119.86-82.51,27.88-5.18,54.92,14.79,70.07,38.76s22.21,52.12,35.05,77.41c28.78,56.65,88.18,96.52,151.51,101.68,13.78,1.12,29,.24,39.34-8.9,30.1-26.53-13-76.37-1.78-114.91,12.79-44,76.29-37.35,119.2-53.5,11.84-4.46,102.89-28.75,104.35-41.32,2.6-22.27-39.64-36.45-86.89-48.6-80.06-20.58-220.92-19.73-289.77-13.5-91.6,8.29-244.22,1.59-303.3,72.08Z" transform="translate(13.68 -5.37)"/><path class="cls-10" d="M3071.14,2308.81a1154.67,1154.67,0,0,0-5.08-392.79c-6.43-34.5-21.49-75.64-56.24-80.61-40.19-5.74-89.39,40.43-114.56,8.56-11.1-14.06-6.67-34.54-.38-51.32A340.15,340.15,0,0,1,2970.59,1674c20.59-20.93,44.15-39.49,60-64.2,33.91-52.86,10.1-130.11-37.89-170.61s-109.91,32.13-160.36,3.29-52-98.78-61.5-156.11c-7-42.46-38.32-157.52-72.88-101.48s46.11,279.07,136.89,386c11,12.9,23,27.34,22.12,44.24-2.21,40.34-61,38.54-100.54,46.8-49,10.23-124-16-82.58,69.31,21.84,45,126.16,106.57,98.13,136.68s-114.2,117.32-154.64,187.84-60,158.36-29.53,233.72,122.17,127.4,197,95.65c35-14.86,73.21-45.75,105.77-26.07,29.48,17.83,25.13,60.62,23.67,95.05s18.39,80.12,51.88,72c11-2.66,19.69-11,27.13-19.57C3040.41,2452.38,3059.82,2379.7,3071.14,2308.81Z" transform="translate(13.68 -5.37)"/><ellipse class="cls-11" cx="1864.16" cy="1813.63" rx="994.59" ry="939.57"/><g class="cls-12"><path class="cls-13" d="M2273,1923.87c-.3,207-14.46,414.51-50.8,618.62-9.2,51-19.87,101.73-32.6,152s-27.5,100-45.55,148.72c-18.2,48.55-39.33,96.41-68,140.11-14.43,21.69-30.8,42.46-51,59.52a144.88,144.88,0,0,1-33.3,21.5,99.69,99.69,0,0,1-38.81,9.17,98,98,0,0,1-39.24-7.23c-12.41-4.94-23.74-12.12-34.07-20.32-20.64-16.53-37.37-37.07-52.06-58.59s-27.17-44.52-38.5-67.91-21.32-47.41-30.46-71.7c-18.28-48.6-33.17-98.36-46-148.57s-23.64-100.94-32.92-151.91c-18.52-102-31.13-204.91-39.62-308.13s-12.61-206.81-13.07-310.4c-.22-51.78,1.09-103.56,2.9-155.31s4.69-103.46,8.46-155.1c7.56-103.28,18.91-206.33,35.82-308.54,8.49-51.09,18.39-102,30.32-152.39s25.84-100.41,43.09-149.33c8.67-24.44,18.15-48.61,29-72.21s22.88-46.69,37.08-68.5,30.6-42.45,51-59c10.18-8.21,21.39-15.36,33.67-20.21a94.87,94.87,0,0,1,38.69-6.9,102.33,102.33,0,0,1,38.24,9,149.45,149.45,0,0,1,33.26,20.8c20.32,16.54,37.14,36.77,52.07,58a555.15,555.15,0,0,1,39.57,67.08c11.74,23.15,22.2,46.91,31.85,71,19.24,48.17,35.11,97.59,48.93,147.53s25.42,100.47,35.5,151.28C2256.23,1509.31,2272.41,1716.8,2273,1923.87Zm-12.77,0c.15-103.23-3.81-206.49-12.42-309.36s-21.43-205.43-40.6-306.85c-9.57-50.71-20.72-101.12-34-151s-28.65-99.16-47.33-147.21c-9.38-24-19.56-47.7-31-70.77a550.86,550.86,0,0,0-38.57-66.77c-14.55-21.13-31-41.19-50.66-57.52a144.91,144.91,0,0,0-32.12-20.51c-11.56-5.2-24-8.59-36.7-8.92a90.24,90.24,0,0,0-37,6.93,126,126,0,0,0-32.38,19.86c-19.67,16.31-35.6,36.82-49.44,58.38s-25.58,44.62-36.07,68.12-19.71,47.59-28.1,72c-16.7,48.78-30.08,98.68-41.53,149s-20.82,101.09-28.81,152.08c-15.93,102-26.31,204.84-32.91,307.87s-9.08,206.32-8.91,309.57q-.3,154.83,11,309.42c7.8,102.92,19.71,205.59,37.51,307.24,8.91,50.82,19.32,101.38,31.79,151.42s27,99.58,44.79,147.9c8.91,24.15,18.7,48,29.71,71.2s23.25,45.86,37.49,67.15,30.48,41.31,50.18,57.28a129.81,129.81,0,0,0,32.17,19.49,89.3,89.3,0,0,0,36.45,6.91,93,93,0,0,0,36.09-8.8,138.14,138.14,0,0,0,31.5-20.66c19.27-16.51,35.15-36.88,49.16-58.25,27.83-43.08,48.48-90.61,66.2-138.88s31.91-98,44.28-148.06,22.61-100.66,31.44-151.49c17.66-101.68,29.42-204.35,37.24-307.28S2260.22,2027.12,2260.19,1923.87Z" transform="translate(13.68 -5.37)"/><path class="cls-13" d="M2795.24,1923.87c-.68,133.24-17.77,266.55-53.4,395.05-36.23,128.22-90.82,251.59-165,362.37A1043.21,1043.21,0,0,1,2450.71,2836c-47,47.24-98.9,89.67-155.31,125.2s-117.44,63.71-181.28,82.94a676.45,676.45,0,0,1-394.19.14c-63.87-19.18-124.89-47.47-181.4-82.83s-108.45-77.89-155.48-125.12a1043.24,1043.24,0,0,1-126.32-154.65c-74.33-110.8-129-234.22-165.38-362.48-35.9-128.53-52.95-262-53.5-395.31a1568.47,1568.47,0,0,1,13.58-199.44,1437.39,1437.39,0,0,1,40.14-195.81c36.44-128.22,91.2-251.57,165.56-362.27a1043,1043,0,0,1,126.34-154.51c47-47.17,99-89.54,155.44-124.94a751.5,751.5,0,0,1,181.28-82.57,672.41,672.41,0,0,1,393.67.13A751.3,751.3,0,0,1,2295,887.15c56.4,35.44,108.31,77.84,155.27,125a1042.24,1042.24,0,0,1,126.13,154.54c74.24,110.69,128.9,234,165.2,362.16C2777.32,1657.33,2794.49,1790.62,2795.24,1923.87Zm-14.64,0c-.25-132-16.74-264.1-51.61-391.49-35.11-127.19-88-249.94-160.64-360.3a1033.34,1033.34,0,0,0-123.73-154.31c-46.2-47.15-97.22-89.78-153-125.23-55.84-35.26-116.14-63.62-179.35-82.81a658.57,658.57,0,0,0-390.41.13c-63.18,19.24-123.44,47.64-179.23,82.94-55.72,35.48-106.69,78.14-152.81,125.31a1032.77,1032.77,0,0,0-123.54,154.33C1193.73,1282.79,1141,1405.5,1106,1532.63a1444.69,1444.69,0,0,0-38.56,193.93,1503.78,1503.78,0,0,0,.1,394.61,1443.06,1443.06,0,0,0,38.68,193.88c35,127.09,87.87,249.72,160.46,360a1032.9,1032.9,0,0,0,123.54,154.19c46.13,47.1,97.07,89.73,152.78,125.12,55.78,35.22,116,63.45,179.11,82.68a654.78,654.78,0,0,0,389.9.15c63.12-19.19,123.4-47.38,179.23-82.57,55.76-35.36,106.76-78,152.95-125A1032.5,1032.5,0,0,0,2568,2675.39c72.72-110.27,125.65-232.95,160.82-360.09C2763.71,2188,2780.28,2055.85,2780.6,1923.87Z" transform="translate(13.68 -5.37)"/><path class="cls-13" d="M890.56,1468.87l264.17-1.78,264.17-1,528.35-.81,528.34.89,264.17,1.11,264.18,1.91a.66.66,0,0,1,.64.65.65.65,0,0,1-.64.65l-264.18,1.91-264.17,1.1-528.34.9-528.35-.81-264.17-1-264.17-1.77a1,1,0,1,1,0-1.92Z" transform="translate(13.68 -5.37)"/><path class="cls-13" d="M1197,1026.4l187.55-1.78,187.56-1c62.51-.43,125-.38,187.55-.51l187.56-.3,375.11.9,187.55,1.1c62.52.65,125,1,187.55,1.92a.64.64,0,0,1,.64.65.65.65,0,0,1-.64.64c-62.51.88-125,1.27-187.55,1.92l-187.55,1.1-375.11.89-187.56-.29c-62.52-.14-125-.09-187.55-.52l-187.56-1L1197,1028.32a1,1,0,1,1,0-1.92Z" transform="translate(13.68 -5.37)"/><path class="cls-13" d="M798.75,1911.33l287.13-1.77,287.12-1,574.25-.82,574.24.9,287.13,1.1,287.12,1.92a.65.65,0,0,1,0,1.29l-287.12,1.92-287.13,1.1-574.24.9L1373,1916l-287.12-1-287.13-1.77a1,1,0,0,1-1-1A1,1,0,0,1,798.75,1911.33Z" transform="translate(13.68 -5.37)"/><path class="cls-13" d="M890.56,2353.8l264.17-1.77,264.17-1,528.35-.81,528.34.9,264.17,1.1,264.18,1.92a.65.65,0,0,1,0,1.29l-264.18,1.92-264.17,1.1-528.34.89-528.35-.81-264.17-1-264.17-1.78a1,1,0,1,1,0-1.92Z" transform="translate(13.68 -5.37)"/><path class="cls-13" d="M2735.27,2800.6H1234.83a3.38,3.38,0,1,1,0-6.75H2735.27a3.38,3.38,0,0,1,0,6.75Z" transform="translate(13.68 -5.37)"/></g><path class="cls-14" d="M1926.25,3308a9.25,9.25,0,0,0-.24-2.38c-11.88-47.09-60.45-71.23-60.45-71.23l-23.36,1.83c-13.43,41.51-22.09,61.77-19.93,73.11.06.32.15.62.24.93C1841.78,3312,1881.44,3313.1,1926.25,3308Z" transform="translate(13.68 -5.37)"/><path class="cls-15" d="M1822.51,3310.26a10.12,10.12,0,0,0,7.41,7.48c27.41,5.77,71,1.13,89.28-1.26,4-.53,7-4.26,7-8.48C1881.44,3313.1,1841.78,3312,1822.51,3310.26Z" transform="translate(13.68 -5.37)"/><path class="cls-16" d="M1884.8,3198l-10.23,49.23a8,8,0,0,1-6.88,6.63,68.29,68.29,0,0,1-15.85-.25c-5.27-.78-8.95-6.14-8-11.89l7.11-43.72Z" transform="translate(13.68 -5.37)"/><path class="cls-17" d="M1624,3309.85c25-.7,37.86-3.64,44.53-6.37,0,2.48,0,5-.08,7.62a4.92,4.92,0,0,1-4.7,5l-137-.88c-4.37,0-6.92-5.1-5-9.11C1539.69,3307.61,1585.44,3310.93,1624,3309.85Z" transform="translate(13.68 -5.37)"/><path class="cls-18" d="M1521.73,3306.12a6.4,6.4,0,0,1,.55-1c12.09-16.91,42.91-50.57,103.8-65.17l29.2-.92s13,22.61,13.26,64.48c-6.67,2.73-19.58,5.67-44.53,6.37C1585.44,3310.93,1539.69,3307.61,1521.73,3306.12Z" transform="translate(13.68 -5.37)"/><path class="cls-19" d="M1660.7,3194.73c-.32,2.18-4.33,35.27-5.88,48.1a6.34,6.34,0,0,1-5.36,5.74c-5,.6-13,1.14-20.06-.31a8.63,8.63,0,0,1-6.55-8.67v-51.94Z" transform="translate(13.68 -5.37)"/><path class="cls-20" d="M1865.28,2551.45s46.74,415.48,20.77,675.15c0,0-31.16,0-46.74-5.19,0,0-48.57-406.23-64.28-522.48a3.91,3.91,0,0,0-7.71-.24c-19.39,97.79-95.53,481.31-104.59,517.52,0,0-26,10.39-46.74,0,0,0,41.55-555.7,72.71-654.37Z" transform="translate(13.68 -5.37)"/><path class="cls-21" d="M1958.76,2068.46s-197.35-31.16-353.15,10.38l10.38,161s41.55,223.32,72.71,322c0,0,119.45,20.77,176.58-10.39,0,0,46.74-280.45,72.71-322C1938,2229.45,1964,2120.39,1958.76,2068.46Z" transform="translate(13.68 -5.37)"/><path class="cls-22" d="M1821.66,1926.55l19.66,133s-54.92,25.23-93.38-1.08l8.28-93.83Z" transform="translate(13.68 -5.37)"/><path class="cls-23" d="M1737,1840c-.62,1.13-12.47,68.17-19.77,109.67a29.11,29.11,0,0,0,27,34.1l15.92.94a56.71,56.71,0,0,0,59.42-48l11.51-75.17S1752.05,1812.71,1737,1840Z" transform="translate(13.68 -5.37)"/><path class="cls-24" d="M1848.22,1861.65c6.11-7.58,11.43-19.85-1.57-32.75-13.15-13.07-28.08-9.81-37.54-5.43a10.47,10.47,0,0,1-12.34-2.45,6.67,6.67,0,0,0-6.21-2.3,9.79,9.79,0,0,1-11.07-8.51c-1.12-9.43-6.14-20.53-22.81-23.75-30.57-5.91-45.83,24.68-45.28,46.19s34.06,26,53.07,22.46c14-2.63,26,9.65,31.47,16.35a10.08,10.08,0,0,1,2,8.66l-4.83,20.78c3.35,6.46,6.63,13,11.34,18.56a20.49,20.49,0,0,0,11,7.09c5.7-10.61,21.64-12.41,29-12.65a10.15,10.15,0,0,0,7.35-3.48c5.59-6.41,14.34-20.71-2.41-34.76A10.1,10.1,0,0,1,1848.22,1861.65Z" transform="translate(13.68 -5.37)"/><path class="cls-25" d="M1810,1948.79s.66-37.51,15.84-41,31.56,7.46,18.58,29.91C1828.22,1965.6,1810,1948.79,1810,1948.79Z" transform="translate(13.68 -5.37)"/><path class="cls-26" d="M1709.06,2262.85s-452.58-134.6-231.16-446.76l18.56,24.47S1432.82,2062,1653.81,2082C1653.81,2082,1711.05,2229.66,1709.06,2262.85Z" transform="translate(13.68 -5.37)"/><path class="cls-27" d="M1869.93,2247.79s445.93-121.39,224.51-433.55l-15,21.21s66.71,211.43-154.28,231.52C1925.18,2067,1867.94,2214.59,1869.93,2247.79Z" transform="translate(13.68 -5.37)"/><path class="cls-28" d="M2095.94,1815.85s3.51-50.42-26.62-55.44-38.67,15.26-43.69,30.32,45.2,45.21,55.25,45.21S2095.94,1815.85,2095.94,1815.85Z" transform="translate(13.68 -5.37)"/><path class="cls-29" d="M1479.67,1824.17s-5-60.27,25.11-65.3S1545,1784,1550,1799.05s-45.21,45.21-55.25,45.21S1479.67,1824.17,1479.67,1824.17Z" transform="translate(13.68 -5.37)"/><path class="cls-30" d="M1060.46,1802c2.12.61-31.58,50.17-32.72,51.61-38.41,48.67-82.29,99.54-134.5,133.71-59.24,38.77-163,41.73-185.49,120.19-18,62.86,5.48,127.55,55.21,168.91,25.33,21.07,58.69,30.1,83.18,52.06,34.71,31.15,23.55,67.73,24.25,109.59,1,61.52,31,102.8,89.56,123.76,119.45,42.77,403.18-161.39,258.56-411.92s-58-319.11-58-319.11Z" transform="translate(13.68 -5.37)"/><path class="cls-31" d="M1457.54,1779.66s-146,231-319.72,275.62c0,0,33.84,96.39,60,107.42,0,0,213.66-178.28,268.57-350.22Z" transform="translate(13.68 -5.37)"/><path class="cls-32" d="M758.86,3257.18l-4.73,38.91a16.07,16.07,0,0,1-14.1,14.06c-12.47,1.43-32.49,2.89-52.08.82a13.77,13.77,0,0,1-11.56-17.86c4.78-15,13.51-37.57,26.11-50.84h43.16A13.3,13.3,0,0,1,758.86,3257.18Z" transform="translate(13.68 -5.37)"/><path class="cls-33" d="M1097,2801.34l7.29,42.86s-24.4,247.14-28.74,346a77.51,77.51,0,0,0,11.46,44l42.43,68.89-107.82-63.62-2.15-13.16,17.65-24.27L1014,2925.2a84.93,84.93,0,0,1,9.67-47l22.3-41.89Z" transform="translate(13.68 -5.37)"/><path class="cls-34" d="M1136.49,3313.09h-34.41a20.72,20.72,0,0,1-16.44-8.06c-10.73-13.94-33-41.13-43.58-41.84-14.31-1-12.48,49.9-12.48,49.9h-8l-10.16-63.2a37.4,37.4,0,0,1,19.63-39.1h0s3.27,24.19,21,34.88,72.16,49,72.16,49a49.19,49.19,0,0,1,14,.37C1149,3297,1147.52,3313.09,1136.49,3313.09Z" transform="translate(13.68 -5.37)"/><path class="cls-35" d="M949.27,2821.7s-142.93,271.13-165.65,333-30.68,113.55-31,118.44c-.48,7.64-10,15-36.18,15-13.52,0-20.14-5.42-23.38-10.67a15.26,15.26,0,0,1-.58-14.79c8.27-16.73,34.51-70.21,44.22-94.46,11.61-29,36.56-160.18,50.25-205.81s29.16-95.12,88.76-140.71C875.72,2821.7,916.64,2781.62,949.27,2821.7Z" transform="translate(13.68 -5.37)"/><path class="cls-36" d="M1039.57,2377.44c36.87-156.24-56.54-244.6-56.54-244.6,58.94-56.58,166.32-82.32,166.32-82.32s102.46,74.91,90.31,133.55c-7.13,34.36-72,205.84-72,205.84S1107.62,2418.31,1039.57,2377.44Z" transform="translate(13.68 -5.37)"/><path class="cls-37" d="M957.82,2454.78c15-45.2,81.75-77.34,81.75-77.34,68,40.87,128.07,12.47,128.07,12.47s13.45,51.44,4.16,99.25-67.56,355-67.56,355c-91.83,18.61-233.06-18.72-233.06-18.72C929.68,2721.64,942.81,2500,957.82,2454.78Z" transform="translate(13.68 -5.37)"/><path class="cls-38" d="M1082.36,1947.28l-30,134.65c-2.87,11.85,7.94,9.91,19.93,7.65,19.64-3.7,45-11.32,53.41-26.6a14.53,14.53,0,0,0,1.53-5.08l12.88-93.37a16.77,16.77,0,0,0-9.82-17.62l-24.85-11A16.77,16.77,0,0,0,1082.36,1947.28Z" transform="translate(13.68 -5.37)"/><path class="cls-39" d="M1139.78,1824.53s31.91,21.6,45.63,76.62-8.58,74.75-31.42,73.54-56-8.28-84.66-47.75S1098,1798.13,1139.78,1824.53Z" transform="translate(13.68 -5.37)"/><path class="cls-40" d="M1098.27,1904.76s-11.7-78.83,53.75-66.78l13.24,13.78s32-36.08-3.42-63.35-84.65-20.29-111.87,29.36-37.09,84.54-14.28,115.39,40,4.39,40,4.39-10.47-26.7-1.79-38.16,19.89,6.67,19.89,6.67Z" transform="translate(13.68 -5.37)"/><path class="cls-41" d="M1093.82,1917.13s-5.77-40.56-26.49-29,7.47,37.88,18.77,46.83Z" transform="translate(13.68 -5.37)"/><path class="cls-42" d="M1455.32,1827.21c.42,4.77-16.36,8.06-21.7-12.25,1.47-8.82,4.07-47.44,10.48-53.44,34.09-32,62.43-28.09,62.43-28.09,3.16,11.08,7.78,20.87,8.31,33.52a38.88,38.88,0,0,1-9,26.21c-6,7.3-14.18,16.71-21.51,23.85C1470.49,1830.54,1455.32,1827.21,1455.32,1827.21Z" transform="translate(13.68 -5.37)"/><path class="cls-43" d="M1472.27,1811.67l-5.57-2.42c1.55-4,15.34-39.2,22.33-46.91,2.54-2.8,3.82-5.26,3.71-7.12a4.73,4.73,0,0,0-1.16-2.67l-24.11,13.62L1456.7,1784l-5.08-3.43,11.62-19.22,29.19-16.48,1.55,1.34c3,2.61,4.59,5.43,4.78,8.63.21,3.78-1.54,7.67-5.38,11.91C1488.13,1772.54,1476.37,1801.14,1472.27,1811.67Z" transform="translate(13.68 -5.37)"/><path class="cls-44" d="M983,2132.84s-165.95,340.72-226,370.51c0,0-61,6.37-98.36,17.67-9.39,2.84-9.08,16.18.39,18.76,26,7.1,69.09,13,108.58-8.41,0,0-21.21,31.79-8.84,44.18,0,0,28.28-33.58,38.89-44.18C807,2522,976.92,2336.76,1048.36,2225c5.78-9,1.77-35.86-2.24-45.8C1036.89,2156.36,1016.42,2119.85,983,2132.84Z" transform="translate(13.68 -5.37)"/><path class="cls-45" d="M1446.83,1759.66s19-34.08,25.42-26.37,8.23,8.38,4.28,20.15,3.45,37.33-7.31,45.4S1450,1801.53,1446.83,1759.66Z" transform="translate(13.68 -5.37)"/><path class="cls-46" d="M793.31,2262.49a1.48,1.48,0,0,0,.92-2.63c-22.78-18.22-46.61-46.9-59.3-71.35-8.76-16.87-13.08-44.33-4.4-64.16a129.54,129.54,0,0,1,21.29-33.3,1.47,1.47,0,0,0-.13-2.08,1.49,1.49,0,0,0-2.08.13,132.61,132.61,0,0,0-21.78,34.06c-8.12,18.55-6.28,46,4.48,66.71,12.87,24.78,37,53.84,60.08,72.29A1.46,1.46,0,0,0,793.31,2262.49Z" transform="translate(13.68 -5.37)"/><path class="cls-46" d="M820.36,2041a1.52,1.52,0,0,0,.59-.12c9.93-4.33,20.21-8.42,30.14-12.38,17.62-7,35.83-14.26,52.95-23.17,36.27-18.87,85.54-52.84,114.37-107.43a1.48,1.48,0,0,0-2.61-1.39c-28.47,53.93-77.23,87.52-113.11,106.2-17,8.85-35.14,16.07-52.69,23.06-10,4-20.25,8.06-30.23,12.4a1.48,1.48,0,0,0,.59,2.83Z" transform="translate(13.68 -5.37)"/><path class="cls-46" d="M1163,1837.29a1.46,1.46,0,0,0,1.43-1.12c.21-.86,5-21.26-5.41-35.23-5.68-7.59-14.76-11.73-27-12.31a1.43,1.43,0,0,0-1.55,1.4,1.48,1.48,0,0,0,1.41,1.55c11.3.53,19.63,4.28,24.76,11.13,9.62,12.86,5,32.56,4.91,32.76a1.47,1.47,0,0,0,1.08,1.78A1.45,1.45,0,0,0,1163,1837.29Z" transform="translate(13.68 -5.37)"/><path class="cls-47" d="M3297.48,3310.65a9.09,9.09,0,0,0-.24-2.42c-12-47.71-61.25-72.17-61.25-72.17l-23.67,1.86c-13.6,42-22.38,62.58-20.2,74.07.07.32.16.63.25.94C3211.89,3314.68,3252.08,3315.81,3297.48,3310.65Z" transform="translate(13.68 -5.37)"/><path class="cls-48" d="M3192.37,3312.93a10.26,10.26,0,0,0,7.51,7.59c27.78,5.84,71.92,1.14,90.46-1.29,4.09-.53,7.08-4.31,7.14-8.58C3252.08,3315.81,3211.89,3314.68,3192.37,3312.93Z" transform="translate(13.68 -5.37)"/><path class="cls-49" d="M3255.48,3199.23l-10.36,49.89a8.16,8.16,0,0,1-7,6.71,69,69,0,0,1-16.06-.26c-5.34-.78-9.07-6.21-8.12-12l7.21-44.3Z" transform="translate(13.68 -5.37)"/><path class="cls-50" d="M2991.25,3312.52c25.28-.71,38.35-3.69,45.11-6.45,0,2.51,0,5.07-.08,7.72a5,5,0,0,1-4.76,5.08l-138.8-.9c-4.43,0-7-5.17-5.1-9.23C2905.82,3310.25,2952.17,3313.61,2991.25,3312.52Z" transform="translate(13.68 -5.37)"/><path class="cls-51" d="M2887.62,3308.74a6.49,6.49,0,0,1,.55-1c12.26-17.13,43.48-51.24,105.17-66l29.6-.94s13.18,22.91,13.42,65.34c-6.76,2.76-19.83,5.74-45.11,6.45C2952.17,3313.61,2905.82,3310.25,2887.62,3308.74Z" transform="translate(13.68 -5.37)"/><path class="cls-52" d="M3028.43,3195.88c-.33,2.21-4.39,35.74-6,48.74a6.42,6.42,0,0,1-5.43,5.81c-5,.61-13.2,1.15-20.33-.31a8.76,8.76,0,0,1-6.64-8.79V3188.7Z" transform="translate(13.68 -5.37)"/><path class="cls-53" d="M3235.71,2544.09s47.36,421,21.05,684.08c0,0-31.58,0-47.36-5.26,0,0-49.22-411.6-65.14-529.38a4,4,0,0,0-7.81-.25c-19.64,99.09-96.79,487.67-106,524.36,0,0-26.32,10.53-47.36,0,0,0,42.09-563,73.67-663Z" transform="translate(13.68 -5.37)"/><path class="cls-54" d="M3191.52,1910.93l19.92,134.71s-55.66,25.57-94.63-1.1l8.39-95.07Z" transform="translate(13.68 -5.37)"/><path class="cls-55" d="M3314.88,2052.57c-50-6.33-210.73-22.41-342.28,12.67l10.53,163.13s42.09,226.27,73.67,326.25c0,0,121,21.05,178.91-10.53,0,0,47.36-284.15,73.67-326.25,0,0,21.56-90.54,21.74-146.74A18.59,18.59,0,0,0,3314.88,2052.57Z" transform="translate(13.68 -5.37)"/><path class="cls-56" d="M3081.1,2243.84s-470.73-50.23-297.57-401.94l18.6,19s-22,214.21,204.76,198.58C3006.89,2059.5,3077.71,2210,3081.1,2243.84Z" transform="translate(13.68 -5.37)"/><path class="cls-57" d="M2750.29,1856s-5.15-61.74,25.72-66.89,41.16,25.73,46.31,41.16-46.31,46.3-56.6,46.3S2750.29,1856,2750.29,1856Z" transform="translate(13.68 -5.37)"/><path class="cls-58" d="M3329.68,2060c41,48.46,269.47,340.15-66.16,458.46v-26.37s137.15-116.05,31.65-274.3c0,0,14.47-119.73,25.06-155.84A5.48,5.48,0,0,1,3329.68,2060Z" transform="translate(13.68 -5.37)"/><path class="cls-59" d="M3260.88,2494.73s-47.47-31.65-68.57-21.1-21.1,26.37-21.1,26.37,10.55,21.1,26.38,15.83,52.74,5.27,68.57,0C3266.16,2515.83,3271.43,2494.73,3260.88,2494.73Z" transform="translate(13.68 -5.37)"/><path class="cls-60" d="M3106.51,1821.45s-25.42,58.38-27.12,89-8.31,50.52,27.12,56.69,65.28-11.48,81.45-42c0,0,25.33-47,19.65-66.3S3106.51,1821.45,3106.51,1821.45Z" transform="translate(13.68 -5.37)"/><path class="cls-61" d="M3175.85,1903.22h-4.48s18.46-37.85,2.24-44.5-80.45-19.75-94.31-42.54c-13.36-22-1.44-50.36,16.38-58.3a2.4,2.4,0,0,1,3,1.12l1.48,2.79a2.41,2.41,0,0,0,4.44-.45h0a2.39,2.39,0,0,1,4.31-.66c4.24,6.81,15.73,17.9,46.54,23.58,43.72,8.07,72.62,25.76,73.33,56a2.4,2.4,0,0,0,3.72,2c3.23-2,8.4-2.89,15.3,2.91,12,10.1,7.09,36.28-19.22,57.82a2.39,2.39,0,0,0,.11,3.86c4.77,3.1,11.88,10.49-6.55,20.34-18.85,10.08-30,9-34.21,7.9a2.4,2.4,0,0,1-1.82-2.49l1.65-26.77a2.4,2.4,0,0,0-2.4-2.56Z" transform="translate(13.68 -5.37)"/><path class="cls-62" d="M3174.75,1908.82s9.7-37.29,26.42-26.83-8.68,41.78-22.12,43.18Z" transform="translate(13.68 -5.37)"/><path class="cls-63" d="M1525.2,1734.11c13.65,22.87,18.22,44.42,8,63.8-19.54,3.87-34.91-3-46-20.69C1487.84,1742.28,1496.67,1721.34,1525.2,1734.11Z" transform="translate(13.68 -5.37)"/><path class="cls-64" d="M2103,1832.31s153.2,242.32,335.37,289.12c0,0-35.49,101.1-62.89,112.68,0,0-224.12-187-281.72-367.37Z" transform="translate(13.68 -5.37)"/><path class="cls-65" d="M2105.28,1882.2c-.43,5,17.16,8.45,22.76-12.86-1.54-9.25-4.27-49.76-11-56.06-35.76-33.52-65.48-29.45-65.48-29.45-3.33,11.62-8.17,21.89-8.72,35.15a40.7,40.7,0,0,0,9.41,27.5c6.34,7.65,14.87,17.52,22.56,25C2089.37,1885.69,2105.28,1882.2,2105.28,1882.2Z" transform="translate(13.68 -5.37)"/><path class="cls-66" d="M2087.5,1865.89l5.84-2.53c-1.62-4.19-16.09-41.12-23.42-49.21-2.66-2.94-4-5.52-3.89-7.47a4.92,4.92,0,0,1,1.22-2.8l25.28,14.28,11.3,18.7,5.33-3.6L2097,1813.1l-30.61-17.29-1.63,1.41c-3.18,2.73-4.81,5.7-5,9-.23,4,1.61,8,5.63,12.49C2070.86,1824.84,2083.2,1854.84,2087.5,1865.89Z" transform="translate(13.68 -5.37)"/><path class="cls-67" d="M2114.18,1811.34s-19.95-35.76-26.66-27.67-8.63,8.79-4.49,21.14-3.62,39.16,7.67,47.62S2110.86,1855.25,2114.18,1811.34Z" transform="translate(13.68 -5.37)"/><path class="cls-68" d="M2485.07,1853.15s21.94,9.67,46.46,53.55c12.11,21.67,28.45,69.42,31.93,113.29,1.8,22.65,12.53,40.79,27,44.24,36,8.62,91.43,37.79,100.3,135.34,6.77,74.46-17.54,102.69-43,112.46-18.74,7.18-31.19,35.64-27.4,65.17,3.64,28.34-1.78,61.09-33.22,87-70.43,58-140.78-137.5-140.78-137.5l-14.41-341.41Z" transform="translate(13.68 -5.37)"/><path class="cls-69" d="M2771.86,3269.92l4.56,37.47a15.48,15.48,0,0,0,13.58,13.54c12,1.37,31.29,2.78,50.15.79a13.26,13.26,0,0,0,11.13-17.19c-4.6-14.47-13-36.19-25.14-49h-41.57A12.8,12.8,0,0,0,2771.86,3269.92Z" transform="translate(13.68 -5.37)"/><path class="cls-70" d="M2446.29,2831l-7,41.28s23.49,238,27.67,333.17a74.58,74.58,0,0,1-11,42.4l-40.85,66.34,103.83-61.27,2.06-12.67-17-23.37,22.26-266.6a81.73,81.73,0,0,0-9.31-45.24l-21.47-40.35Z" transform="translate(13.68 -5.37)"/><path class="cls-71" d="M2408.22,3323.76h33.13a20,20,0,0,0,15.84-7.76c10.33-13.42,31.73-39.61,42-40.29,13.78-.92,12,48.05,12,48.05h7.72l9.78-60.85a36,36,0,0,0-18.91-37.66h0s-3.14,23.29-20.22,33.59-69.48,47.19-69.48,47.19a47.56,47.56,0,0,0-13.47.36C2396.14,3308.28,2397.6,3323.76,2408.22,3323.76Z" transform="translate(13.68 -5.37)"/><path class="cls-72" d="M2588.51,2850.57s137.63,261.09,159.51,320.7,29.55,109.34,29.84,114.05c.46,7.36,9.61,14.41,34.84,14.41,13,0,19.4-5.21,22.52-10.27a14.72,14.72,0,0,0,.56-14.24c-8-16.11-33.23-67.61-42.59-91C2782,3156.37,2758,3030,2744.8,2986.06s-28.07-91.59-85.47-135.49C2659.33,2850.57,2619.93,2812,2588.51,2850.57Z" transform="translate(13.68 -5.37)"/><path class="cls-73" d="M2501.55,2422.76c-35.5-150.45,57.34-223.94,57.34-223.94-4-47.92-106.23-77.38-146.74-87.21a33.8,33.8,0,0,0-29.59,6.85c-26.5,22.05-82.68,74.7-73.69,118.09,6.86,33.09,69.36,198.22,69.36,198.22S2436,2462.12,2501.55,2422.76Z" transform="translate(13.68 -5.37)"/><path class="cls-74" d="M2580.27,2497.24c-14.45-43.53-78.72-74.48-78.72-74.48-65.53,39.36-123.32,12-123.32,12s-13,49.53-4,95.57,65.07,341.9,65.07,341.9c88.42,17.91,224.42-18,224.42-18C2607.38,2754.21,2594.72,2540.77,2580.27,2497.24Z" transform="translate(13.68 -5.37)"/><path class="cls-75" d="M2460.34,2008.53l28.87,129.66c2.76,11.42-7.65,9.55-19.2,7.37-18.91-3.56-43.28-10.9-51.43-25.62a14.08,14.08,0,0,1-1.47-4.89l-12.4-89.91a16.14,16.14,0,0,1,9.45-17l23.93-10.61A16.15,16.15,0,0,1,2460.34,2008.53Z" transform="translate(13.68 -5.37)"/><path class="cls-76" d="M2426.47,1885.07s-34.18,14.43-57.43,63.84-5.89,72.21,15.92,75.34,54.41,2.65,88.9-29.26S2470.91,1868,2426.47,1885.07Z" transform="translate(13.68 -5.37)"/><path class="cls-77" d="M2450.68,1968.62s25.79-72.28-38.29-73.13L2397.31,1906s-23.51-40.08,15.08-59.21,83.76-3.33,100.18,48.67,19.22,86.79-8.1,111.66-38.58-3.32-38.58-3.32,14.88-23.27,8.82-35.72-20,2.58-20,2.58Z" transform="translate(13.68 -5.37)"/><path class="cls-78" d="M2446.91,1982.62s13-37.23,30.44-22.4-14.14,34.39-26.49,40.73Z" transform="translate(13.68 -5.37)"/><path class="cls-79" d="M2506.07,2271.93s420.33-48,253.35-418.41l-26.87,23s48,261-185.85,297.79C2546.7,2174.34,2504.08,2238.68,2506.07,2271.93Z" transform="translate(13.68 -5.37)"/><path class="cls-80" d="M2763.38,1871.43s32.12-51.36,7.59-69.66-47.3,3.93-58.68,15,19.51,61,28.46,65.6S2763.38,1871.43,2763.38,1871.43Z" transform="translate(13.68 -5.37)"/><path class="cls-81" d="M2022.91,1802.59c5.65-22,15.26-38.61,30.94-47a13.82,13.82,0,0,1,16,2.26c10.9,10.57,14.42,24.34,10.43,41.38C2055,1823.36,2034,1831.84,2022.91,1802.59Z" transform="translate(13.68 -5.37)"/></g></g></svg>