<svg id="Layer_1" data-name="Layer 1" xmlns="http://www.w3.org/2000/svg" viewBox="0 0 1778 1208.17"><defs><style>.cls-1{fill:#feefdc;}.cls-2{fill:#21111d;}.cls-3{fill:#ea2d3f;}.cls-4{fill:#ff424d;}.cls-5{fill:#4cb7d8;}.cls-6{fill:#3aa1c9;}.cls-7{fill:#dcf4ff;}.cls-8{fill:#fe9f73;}.cls-9{fill:#351b2e;}.cls-10{fill:#49263e;}.cls-11{fill:#f07162;}.cls-12{fill:#aac9f8;}.cls-13{fill:#d6e8f4;}.cls-14{fill:#f75553;}.cls-15{fill:#258d8c;}.cls-16{fill:#397fa1;}.cls-17{fill:#61a3c5;}.cls-18{fill:#fff;}.cls-19{fill:#edfcfb;}.cls-20{fill:#fec786;}.cls-21{fill:#ef3a4c;}.cls-22{fill:#d82540;}.cls-23{fill:#7fc6a6;}.cls-24{fill:#3f9896;}.cls-25{fill:#4c222e;}.cls-26{fill:#f99247;}.cls-27{fill:#472a31;}.cls-28{fill:#d7e4f7;}.cls-29{fill:#683d46;}.cls-30{fill:#fd7583;}.cls-31{fill:#f9b59d;}.cls-32{fill:#e23e3d;}.cls-33{fill:#cc2323;}.cls-34{fill:#e2f2f1;}.cls-35{fill:#fbfdfc;}.cls-36{fill:#fecc86;}.cls-37{fill:#f78c63;}</style></defs><path class="cls-1" d="M2148,1527.83l134,1.34c111.88-99.71,109.62-386.81,25.17-507.55C2165.33,818.76,2176.79,818.42,2102.5,747s-60.76-294.52-272.21-395.09-497.18,71.42-612.9,129.72S1062.65,461.32,995.5,438s-174.42-80.85-283,113-116.59,553-95.16,642.18,30,84.25-15.72,183c-33.63,72.65,17,128.51,46.13,153H2148Z" transform="translate(-590.5 -321)"/><path class="cls-2" d="M1955.58,846.23a2,2,0,0,0,1.71-.73c0-.08,1-1.88,2.25-5.07.22-.56-.37-1.12-1.33-1.25s-1.92.22-2.14.78c-1.25,3.12-2.18,4.92-2.19,4.94-.29.54.25,1.12,1.19,1.29A2.92,2.92,0,0,0,1955.58,846.23Z" transform="translate(-590.5 -321)"/><path class="cls-2" d="M1961,830.87c-1-.09-1.63-.62-1.48-1.18a96.49,96.49,0,0,0,2.26-10.39c.09-.57,1-1,1.94-.94s1.7.56,1.6,1.13A96.46,96.46,0,0,1,1963,830c-.14.51-.9.87-1.76.87Zm3.56-21c-1,0-1.76-.49-1.74-1.06,0-1.06.06-2.13.06-3.17,0-2.45-.11-4.91-.34-7.29,0-.57.7-1.06,1.68-1.09s1.83.41,1.88,1c.23,2.42.35,4.91.35,7.4,0,1.05,0,2.14-.07,3.22,0,.56-.81,1-1.78,1ZM1960.77,788a66.55,66.55,0,0,0-3.43-10.24c-.24-.55.34-1.11,1.3-1.25a2.1,2.1,0,0,1,2.16.75,69.18,69.18,0,0,1,3.5,10.44c.14.57-.54,1.09-1.51,1.17h-.26C1961.66,788.88,1960.9,788.51,1960.77,788Zm-160.43-10.26a45.23,45.23,0,0,1-16.85-5c-.71-.39-.74-1-.06-1.46a2.74,2.74,0,0,1,2.51,0,40.39,40.39,0,0,0,15.08,4.42c1,.11,1.6.65,1.41,1.21s-.91.84-1.75.84Zm16.63-1.06c-.33-.54.15-1.13,1.07-1.32a21.36,21.36,0,0,0,11.82-6.61,2.52,2.52,0,0,1,2.4-.45c.87.26,1.22.89.77,1.39a24.78,24.78,0,0,1-13.78,7.61,3.15,3.15,0,0,1-.61.06A2,2,0,0,1,1817,776.68ZM1952,767.82a72,72,0,0,0-7.36-9.48c-.46-.5-.14-1.13.73-1.4a2.52,2.52,0,0,1,2.41.43,71.9,71.9,0,0,1,7.55,9.72c.35.53-.12,1.13-1,1.33a2.56,2.56,0,0,1-.62.07A2.05,2.05,0,0,1,1952,767.82Zm-178.41-4.34a20.55,20.55,0,0,1-2.77-10.42v-.29c0-.57.8-1,1.78-1h0c1,0,1.78.46,1.77,1v.28a19.34,19.34,0,0,0,2.58,9.77c.32.54-.19,1.12-1.12,1.31a3.66,3.66,0,0,1-.57.05A2,2,0,0,1,1773.62,763.48Zm62.51-3.32c-1-.07-1.68-.58-1.57-1.15a24.92,24.92,0,0,0,.46-4.78,29.21,29.21,0,0,0-.54-5.51c-.1-.56.6-1.07,1.58-1.14s1.86.35,2,.92a31.55,31.55,0,0,1,.55,5.73,25.82,25.82,0,0,1-.48,5c-.1.53-.87.91-1.76.91Zm99-10.62a102.6,102.6,0,0,0-11.58-7.9.77.77,0,0,1,0-1.46,2.74,2.74,0,0,1,2.51,0,103.71,103.71,0,0,1,11.92,8.13c.58.46.41,1.11-.38,1.45a2.84,2.84,0,0,1-1.05.2A2.37,2.37,0,0,1,1935.17,749.54Zm-160.45-6.17c-1-.15-1.51-.72-1.24-1.27a35.67,35.67,0,0,1,7.24-9.93,2.58,2.58,0,0,1,2.44-.36c.85.29,1.13.92.63,1.41a33.67,33.67,0,0,0-6.88,9.43,1.92,1.92,0,0,1-1.72.76A2.56,2.56,0,0,1,1774.72,743.37Zm56.28-4.8a56.56,56.56,0,0,0-6.2-9.73c-.41-.52,0-1.13.88-1.37a2.44,2.44,0,0,1,2.36.51,58.76,58.76,0,0,1,6.39,10c.27.55-.28,1.12-1.23,1.28a2.7,2.7,0,0,1-.49,0A1.92,1.92,0,0,1,1831,738.57Zm79.19-3.83c-4.71-2.14-9.67-4.13-14.76-5.91-.84-.3-1.11-.93-.6-1.42a2.59,2.59,0,0,1,2.44-.35c5.21,1.82,10.29,3.86,15.12,6.05.77.35.91,1,.3,1.45a2.41,2.41,0,0,1-1.4.4A2.67,2.67,0,0,1,1910.19,734.74Zm-117.63-9.38c-.62-.44-.51-1.09.24-1.45a73.4,73.4,0,0,1,16.21-5.37,2.31,2.31,0,0,1,2.29.61c.34.53-.13,1.13-1,1.33a69,69,0,0,0-15.18,5,2.63,2.63,0,0,1-1.13.24A2.48,2.48,0,0,1,1792.56,725.36Zm87-1.34c-5.56-1.43-11.22-2.62-16.82-3.54-1-.16-1.5-.73-1.23-1.28a2.15,2.15,0,0,1,2.2-.71c5.77,1,11.58,2.17,17.29,3.64.9.23,1.31.84.91,1.36a2.11,2.11,0,0,1-1.63.62A2.9,2.9,0,0,1,1879.54,724Zm-63.24-4.32a103.86,103.86,0,0,0-10.49-8.44c-.63-.44-.52-1.09.24-1.45a2.76,2.76,0,0,1,2.51.14,107.86,107.86,0,0,1,10.75,8.64c.52.49.27,1.13-.56,1.43a2.71,2.71,0,0,1-1,.16A2.27,2.27,0,0,1,1816.3,719.7Zm28.92-1.26a153.5,153.5,0,0,0-17.76-.17c-1,.06-1.84-.37-1.93-.93s.63-1.07,1.61-1.13a159.43,159.43,0,0,1,18.49.18c1,.06,1.67.57,1.56,1.14s-.87.92-1.76.92Zm-51.62-14.78a130.1,130.1,0,0,0-14-6.45c-.82-.32-1-1-.48-1.43a2.67,2.67,0,0,1,2.48-.28,134.37,134.37,0,0,1,14.42,6.64c.72.39.76,1.05.09,1.47a2.61,2.61,0,0,1-1.3.33A2.71,2.71,0,0,1,1793.6,703.66ZM1764.14,692c-5.17-1.51-10.72-2.9-16.48-4.15-.92-.19-1.39-.79-1.05-1.32a2.3,2.3,0,0,1,2.29-.61c5.89,1.26,11.55,2.69,16.84,4.23.88.26,1.23.88.79,1.39a2.17,2.17,0,0,1-1.59.57A3.09,3.09,0,0,1,1764.14,692Zm-33.63-7.31c-5.63-.88-11.54-1.66-17.57-2.32-1-.1-1.6-.64-1.42-1.2s1.11-.94,2.07-.83c6.12.66,12.13,1.46,17.85,2.35,1,.15,1.51.72,1.26,1.27a1.92,1.92,0,0,1-1.72.76A3.71,3.71,0,0,1,1730.51,684.66Zm-35.41-3.88c-5.91-.4-12-.69-18-.88-1,0-1.74-.51-1.68-1.08s.89-1,1.87-1c6.1.18,12.23.48,18.21.89,1,.06,1.68.58,1.57,1.14s-.88.92-1.77.92Z" transform="translate(-590.5 -321)"/><path class="cls-2" d="M1650,679.88h.13s3.29-.14,8.79-.19c1,0,1.77-.47,1.76-1.05s-.81-1-1.78-1h0c-5.63,0-8.87.18-9,.19-1,0-1.72.54-1.65,1.11S1649.12,679.88,1650,679.88Z" transform="translate(-590.5 -321)"/><path class="cls-3" d="M1625.5,689.37l-10.06-6.69s-49.9-3.14-50.59-3.35l-26.35-7.68,32.23-1.08,52.7,4.4Z" transform="translate(-590.5 -321)"/><polygon class="cls-4" points="1044.87 339 948 350.65 1032.93 353.97 1044.87 339"/><polygon class="cls-4" points="1024.94 361.68 1012.42 377.62 948 350.65 1024.94 361.68"/><rect class="cls-5" x="449.43" y="789.88" width="138.58" height="250.57"/><path class="cls-5" d="M691.87,1202V858.7c0-16.31,15.31-29.54,34.21-29.54h771.16c18.89,0,34.21,13.23,34.21,29.54V1202Z" transform="translate(-590.5 -321)"/><path class="cls-6" d="M1531.45,1202v55c0,11.44-8.76,20.71-19.57,20.71H711.44c-10.81,0-19.57-9.27-19.57-20.71v-55Z" transform="translate(-590.5 -321)"/><path class="cls-7" d="M711.52,1187.05V859.61c0-8.58,8.35-15.54,18.65-15.54h763c10.31,0,18.66,7,18.66,15.54v327.44Z" transform="translate(-590.5 -321)"/><path class="cls-6" d="M921.76,1368.6c-2.35-11.84,6.87-21.44,20.59-21.44h333.5c13.72,0,26.75,9.6,29.11,21.44H921.76Z" transform="translate(-590.5 -321)"/><path class="cls-2" d="M711.44,1278.54h800.44c11.35,0,20.58-9.68,20.58-21.58V858.7c0-16.77-15.8-30.4-35.22-30.4V830c18.31,0,33.21,12.86,33.21,28.67V1257c0,10.94-8.33,19.85-18.57,19.85H711.44Z" transform="translate(-590.5 -321)"/><polygon class="cls-2" points="328.52 919.32 330.15 918.31 311.03 895.35 309.4 896.36 328.52 919.32"/><polygon class="cls-2" points="328.52 930.18 330.14 929.15 311.03 906.82 309.41 907.85 328.52 930.18"/><polygon class="cls-2" points="553.83 976.83 555.58 975.97 546.07 961.61 544.33 962.47 553.83 976.83"/><polygon class="cls-2" points="552.25 985.09 553.98 984.21 545.38 971.56 543.65 972.44 552.25 985.09"/><path class="cls-2" d="M710.52,1187.91H1511.8v-1.73H712.52V859.61c0-8.09,7.92-14.67,17.65-14.67v-1.73c-10.84,0-19.65,7.36-19.65,16.4Z" transform="translate(-590.5 -321)"/><path class="cls-8" d="M1253.32,794.26s9.33-30.09,17.85-33.25,18,2.13,18,2.13,9.12-10.74,15.33-9.72,7.72,5.82,7.72,5.82,11,1,12.1,8.8c0,0,8.64,1.81,8.53,7.93,0,0,4.45,1.74,4.17,9.15,0,0-14.83,25-36.61,33.88S1253.32,794.26,1253.32,794.26Z" transform="translate(-590.5 -321)"/><path class="cls-9" d="M1063.6,1186.18l2.77-211.55-5.93-27.17L916.73,988.89s4.42,89.42,13.75,197.29Z" transform="translate(-590.5 -321)"/><path class="cls-10" d="M953.25,1186.18,969.4,1037l27.31-108.91-185.8,63.49s-1.32,87.86.93,194.64Z" transform="translate(-590.5 -321)"/><polygon class="cls-10" points="625.5 322.04 767.12 525.63 755.33 533.36 643.19 353.94 625.5 322.04"/><path class="cls-8" d="M1288.16,762.5s6.26-5.59,10-7.25,26.17,33.91,26.17,33.91l3.24,8.79s-2.86,4.65-4.72,4.46-7.47-3.89-7.47-3.89l-1.46-4.85-2.26-.55-3-2.35-1.46-3.85-3.14,1.22-4.46-1.52-2.06-3.59-.89-.35-13.29-18.44Z" transform="translate(-590.5 -321)"/><path class="cls-11" d="M1296.32,783.34c-2,0-4.25-1.18-6.62-2.4a37.49,37.49,0,0,0-5.12-2.34c-5.23-1.78-7.62-1-7.64-1a.77.77,0,0,1-1-.34.6.6,0,0,1,.39-.82c.11,0,2.86-1,8.73,1a39.21,39.21,0,0,1,5.34,2.43c3.7,1.92,6,3,7.63,1.51a5.5,5.5,0,0,0,1.83-4.72c-.41-3.81-4.58-8.67-11.15-13-8.09-5.34-15.21-2.7-15.51-2.59a.78.78,0,0,1-1-.31.59.59,0,0,1,.36-.83c.33-.13,8.18-3.08,17,2.73,7,4.62,11.27,9.68,11.72,13.9a6.58,6.58,0,0,1-2.2,5.67A3.92,3.92,0,0,1,1296.32,783.34Z" transform="translate(-590.5 -321)"/><path class="cls-11" d="M1298.79,772.64a.8.8,0,0,1-.49-.16.58.58,0,0,1,0-.89l13.46-12.77a.81.81,0,0,1,1,0,.57.57,0,0,1,0,.89l-13.46,12.76A.76.76,0,0,1,1298.79,772.64Z" transform="translate(-590.5 -321)"/><path class="cls-11" d="M1313.53,794.16a5.06,5.06,0,0,1-2.9-.88c-1.48-.72-4.23-3.06-3.35-6.46a.73.73,0,0,1,.87-.47.63.63,0,0,1,.55.75c-.85,3.32,2.6,5.06,2.74,5.14a3.74,3.74,0,0,0,2.86.59c7.22-1.18,17.84-17,18-17.18a.79.79,0,0,1,1-.23.59.59,0,0,1,.27.86c-.45.67-11.06,16.49-18.93,17.79A6.38,6.38,0,0,1,1313.53,794.16Z" transform="translate(-590.5 -321)"/><path class="cls-11" d="M1303.76,788.62a7,7,0,0,1-4.12-1.18,7.23,7.23,0,0,1-2.85-4.9.65.65,0,0,1,.66-.67.7.7,0,0,1,.79.57,5.42,5.42,0,0,0,6.6,4.86c5.3-.63,15.42-14.34,18.88-19.57a.79.79,0,0,1,1-.24.59.59,0,0,1,.27.86c-.52.79-12.85,19.35-19.94,20.19A11.42,11.42,0,0,1,1303.76,788.62Z" transform="translate(-590.5 -321)"/><path class="cls-12" d="M1072.81,1134.71l.85-1L1069.19,917s82.59,47.8,107.34,48.72,127.09-130.18,127.09-130.18c-21.57-42.73-67-48.65-67-48.65l-84.51,80-99-77.52c-13.2-6.91-114.68-8.41-114.68-8.41s-115.51-2.27-128.71,4.65S748,906.45,740.44,958.12s0,85.14,45.73,91.24l16.63.31,1.28,85s92.17,17.9,268.73,0Z" transform="translate(-590.5 -321)"/><path class="cls-4" d="M1236.64,786.92l-84.51,80-99-77.52c-5-2.59-22.38-4.43-42.2-5.7L951.43,906,861.61,781c-31.47.24-45,1.06-51.87,4.64-13.2,6.92-61.76,120.85-69.3,172.52s0,85.14,45.73,91.24l16.63.31,1.28,85s92.17,17.9,268.73,0l.85-1L1069.19,917s82.59,47.8,107.34,48.72,127.09-130.18,127.09-130.18C1282.05,792.84,1236.64,786.92,1236.64,786.92Z" transform="translate(-590.5 -321)"/><rect class="cls-10" x="331.23" y="609.25" width="123.26" height="134.58" rx="11.97"/><path class="cls-13" d="M1014.65,925.16H957.23c-3.25,0-5.89,2.28-5.89,5.09h69.2C1020.54,927.44,1017.91,925.16,1014.65,925.16Z" transform="translate(-590.5 -321)"/><path class="cls-8" d="M1047.94,999.54c13.32-10.13-.63-11.83-.63-11.83,6.5-6.07,5-8.9,2.6-10.21a7.48,7.48,0,0,0-5.87-.41c-6.13,2-24.8,8.37-36.2,12.92-8.11-.5-5.52-12.29-1.9-18.34,1.87-3.11,2-8.26-6.8-3.08-7.19,4.24-18,18.18-18,18.18L936,983l6.74,53.75s51.59-.63,59.36-.67,33.8-7.7,41.66-13.61c14.27-10.71,5.3-11.26,5.3-11.26C1062.62,998.9,1047.94,999.54,1047.94,999.54Z" transform="translate(-590.5 -321)"/><path class="cls-11" d="M1031,996.58a1,1,0,0,1-.94-.5.77.77,0,0,1,.51-1.05c6.69-2.38,16.12-7.93,16.21-8a1,1,0,0,1,1.3.21.74.74,0,0,1-.24,1.12c-.4.23-9.69,5.71-16.56,8.15A.94.94,0,0,1,1031,996.58Z" transform="translate(-590.5 -321)"/><path class="cls-11" d="M1031.92,1006.77a.93.93,0,0,1-1-.6.81.81,0,0,1,.66-1,62,62,0,0,0,15.8-6.31,1,1,0,0,1,1.3.21.74.74,0,0,1-.23,1.12,63.63,63.63,0,0,1-16.39,6.54Z" transform="translate(-590.5 -321)"/><path class="cls-11" d="M1035.05,1018.24a.94.94,0,0,1-1-.57.81.81,0,0,1,.63-1,52.87,52.87,0,0,0,13.73-6.07,1,1,0,0,1,1.31.15.74.74,0,0,1-.18,1.13,54,54,0,0,1-14.32,6.34Z" transform="translate(-590.5 -321)"/><polygon class="cls-2" points="237.62 651.91 235.74 649.99 254.14 636.57 261.16 562.96 264.07 563.17 256.94 637.82 237.62 651.91"/><path class="cls-2" d="M802.77,1050.93l-16.82-.32c-22.45-3-36.84-12.6-44-29.34-6.21-14.53-7.15-34.65-3-63.31l2.89.32c-8.52,58.41,4.34,84.44,44.42,89.83l16.53.3Z" transform="translate(-590.5 -321)"/><path class="cls-4" d="M917,962.12l45.47,2.51s9.19,25-1.86,75.76c-1.07,4.93-3.33,13.35-3.33,13.35s-46.17,3.17-53.42-9.77c-4.55-8.13,5.4-43.24,5.4-43.24Z" transform="translate(-590.5 -321)"/><path class="cls-2" d="M958.43,1055l-155.67-4.1.09-2.52,153.32,4c2.19-7.83,16.23-60.52,5.28-86.62L846,959.45l.18-2.51,117.38,6.49.34.75c12.75,28.52-4.4,87.38-5.13,89.87Z" transform="translate(-590.5 -321)"/><path class="cls-2" d="M1153.15,888.26l-2.41-20.78-95.87-75.06c-7-5.5-20.69-5.57-20.83-5.57v-2.52h0c.62,0,14.91.08,22.77,6.23l96.71,75.71,2.53,21.74Z" transform="translate(-590.5 -321)"/><path class="cls-2" d="M1153.21,867.72l-2.16-1.69,85-80.46.78.11c.45.06,45.41,6.85,68.07,49.36l-2.65,1.05c-20.38-38.24-59.21-46.71-65.13-47.8Z" transform="translate(-590.5 -321)"/><path class="cls-2" d="M962.44,1143.44l-2.55,0,0-2.51c36.44.33,101.43-6.28,111.41-7.32l-3.61-237.4,2.92,0,3.64,239.66-1.29.14C1072.27,1136,1002.43,1143.43,962.44,1143.44Z" transform="translate(-590.5 -321)"/><path class="cls-2" d="M910.76,828c-14.67-7.9-25.33-20.13-30-34.43l2.8-.68c4.48,13.7,14.69,25.41,28.75,33Z" transform="translate(-590.5 -321)"/><path class="cls-8" d="M922,690.61s20.59-7.56,38.88-2.14c10.58,3.15,17.62,11.83,17.62,21.5v9.44l-56.36-20.77s-8.91,3.64-8.2,2.54S922,690.61,922,690.61Z" transform="translate(-590.5 -321)"/><path class="cls-8" d="M978.46,708.9v39.85s.69,14.24-13.75,16l2.7,19c1,7.06-3.89,13.82-11.75,16A51.64,51.64,0,0,1,942,801.55c-16.49,0-25.43-10.68-26.8-16S918,754.68,918,754.68l-.51-12.53,1.88-48.57Z" transform="translate(-590.5 -321)"/><path class="cls-2" d="M938.63,727.69a.68.68,0,0,1-.47-.17.53.53,0,0,1,0-.83c.09-.09,9.55-8.43,18.19-2.43a.55.55,0,0,1,.1.84.78.78,0,0,1-1,.09c-7.65-5.33-16,2-16.33,2.32A.77.77,0,0,1,938.63,727.69Z" transform="translate(-590.5 -321)"/><path class="cls-2" d="M967,724.13a.75.75,0,0,1-.52-.2.54.54,0,0,1,.07-.84c.27-.21,6.83-5.05,11-2a.55.55,0,0,1,.07.84.77.77,0,0,1-1,.06c-3.25-2.4-9.12,1.93-9.18,2A.8.8,0,0,1,967,724.13Z" transform="translate(-590.5 -321)"/><path d="M952.53,730.09a2.08,2.08,0,1,1-2.06-1.78A1.94,1.94,0,0,1,952.53,730.09Z" transform="translate(-590.5 -321)"/><path d="M974.45,728.31a2.08,2.08,0,1,1-2.06-1.78A1.94,1.94,0,0,1,974.45,728.31Z" transform="translate(-590.5 -321)"/><path class="cls-2" d="M922,690s-17.46-.73-21.89,12.46,3.12,20.15,3.27,24.08S900.41,757,922,755l5.82-43.77-7.5-17.42Z" transform="translate(-590.5 -321)"/><ellipse class="cls-8" cx="332.63" cy="408.47" rx="12.37" ry="10.68"/><path class="cls-11" d="M922.22,736a5,5,0,0,1-4.86-3.33,3.91,3.91,0,0,1,2-4.88,6.57,6.57,0,0,1,6.49.2,5,5,0,0,0-2.5-2.63,8.9,8.9,0,0,0-5.49-.31.35.35,0,0,1-.43-.19.29.29,0,0,1,.22-.37,9.56,9.56,0,0,1,6,.35,5.91,5.91,0,0,1,3.16,3.89l.3,1-.88-.75a6,6,0,0,0-6.54-.71,3.36,3.36,0,0,0-1.66,4.2,4.32,4.32,0,0,0,4.19,2.91h.07a.33.33,0,0,1,.35.29.32.32,0,0,1-.34.3Z" transform="translate(-590.5 -321)"/><path class="cls-11" d="M931.25,752.67s1,23.83,35.45,26.11l-2-14S942.35,768.64,931.25,752.67Z" transform="translate(-590.5 -321)"/><path class="cls-11" d="M959.81,742.09a.35.35,0,0,1-.33-.2.3.3,0,0,1,.22-.38l6.89-2-2.18-14a.31.31,0,0,1,.3-.33.33.33,0,0,1,.38.26L967.35,740l-7.43,2.12Z" transform="translate(-590.5 -321)"/><polygon class="cls-8" points="326.96 437 329.36 416.91 335.14 417.46 335.14 437.58 326.96 437"/><path class="cls-2" d="M925.2,689.59s-4.05,8.34,2.59,22.24-17-5.18-17-5.18S912.4,686.3,925.2,689.59Z" transform="translate(-590.5 -321)"/><path class="cls-11" d="M1323.72,802.87h-.12c-4-.59-6.86-1.94-8.47-4a6.55,6.55,0,0,1-1.29-5.31.74.74,0,0,1,.87-.48.65.65,0,0,1,.56.75,5.43,5.43,0,0,0,1.08,4.36c1.39,1.77,3.91,2.93,7.49,3.46a.65.65,0,0,1,.6.72A.71.71,0,0,1,1323.72,802.87Z" transform="translate(-590.5 -321)"/><path class="cls-2" d="M927.79,711.83s52.54-2.68,55.78-13.31-9.12-10.9-9.12-10.9,2.32-15.1-13.55-10.62-45.28,3.89-53.55,16.58S927.79,711.83,927.79,711.83Z" transform="translate(-590.5 -321)"/><path class="cls-14" d="M1285.09,622.81c-3.28,0-5.94,2.3-5.94,5.13s2.66,5.13,5.94,5.13,5.94-2.3,5.94-5.13S1288.37,622.81,1285.09,622.81Z" transform="translate(-590.5 -321)"/><path class="cls-14" d="M1297,654.78c-3.28,0-5.94,2.29-5.94,5.13s2.66,5.12,5.94,5.12,5.94-2.29,5.94-5.12S1300.25,654.78,1297,654.78Z" transform="translate(-590.5 -321)"/><path class="cls-14" d="M1130.07,592.54,1119.82,599a2.78,2.78,0,0,0-.76,4.26,3.72,3.72,0,0,0,2.85,1.26,4,4,0,0,0,2.09-.59l8.18-5.17,7.2,21.19a3.51,3.51,0,0,0,3.39,2.2,3.81,3.81,0,0,0,1-.13,3,3,0,0,0,2.4-3.78l-7.91-23.31,10.86-6.86L1162,602.56a3.92,3.92,0,0,0,5,.57,2.78,2.78,0,0,0,.66-4.28l-12.77-14.38,6.91-4.36a2.79,2.79,0,0,0,.77-4.27,3.93,3.93,0,0,0-5-.66l-7,4.44-23.88-26.9a5.47,5.47,0,0,0-6.25-1.23,4.09,4.09,0,0,0-2.55,5.08Zm14.75-9.31-8.68,5.48L1127.75,564Z" transform="translate(-590.5 -321)"/><path class="cls-15" d="M1168.1,531.64c2.49,0,3.16-1.24,5.36-5.34.29-.54.57-1.06.85-1.56l5.71,16.89c-.07.18-.14.36-.22.53a3.52,3.52,0,0,0-.27.63c-1.41,3.29-2.9,6.46-4.36,9.29a2.91,2.91,0,0,0,1.8,4,4,4,0,0,0,1.44.27,3.6,3.6,0,0,0,3.23-1.82c.39-.75,1-1.88,1.64-3.29l8.33,24.62a3.52,3.52,0,0,0,3.4,2.2,4.25,4.25,0,0,0,1-.12,3,3,0,0,0,2.4-3.79l-.74-2.2c6.57-2.91,22.68-11,27.29-22a15.13,15.13,0,0,0-.91-14,16,16,0,0,0-12.06-8.37c-7.35-1-15.38,2.59-21.53,6.36,3.46-10.23,5.59-21.37,1.15-26.76a8,8,0,0,0-6.93-3.12c-3.14.25-6,2.39-8.72,5.55a4,4,0,0,0-3.25-.58,3,3,0,0,0-2.41,3.79l1.09,3.22c-1.49,2.42-2.93,5-4.34,7.65-.57,1.07-1.21,2.27-1.53,2.78a2.84,2.84,0,0,0-1,2.08A3.32,3.32,0,0,0,1168.1,531.64Zm42.79,2c2.87.39,5.09,2,6.8,5a9.86,9.86,0,0,1,.61,9.2c-3.49,8.36-16.3,15.16-22.67,18.11L1188,543.53C1193.54,539.22,1203.69,532.67,1210.89,533.65Zm-25.65-23.46a2.75,2.75,0,0,1,.59.56c2.53,3.08,1.09,11.41-1.92,20.57l-4.9-14.49C1182.47,511.58,1184.32,510.34,1185.24,510.19Z" transform="translate(-590.5 -321)"/><path class="cls-16" d="M1274.27,566.54a74.68,74.68,0,0,0,13.16-1.29,3.09,3.09,0,0,0,2.73-3.62,3.54,3.54,0,0,0-4.18-2.36c-16.53,3-27,.24-31.18-8.18-6.87-13.93,4.73-37.58,12.93-42.4,3.51-2.07,6.82-2.78,9.82-2.12,5.67,1.25,9.07,6.88,9.14,7a3.82,3.82,0,0,0,4.74,1.36,2.87,2.87,0,0,0,1.58-4.1c-.19-.33-4.83-8.18-13.65-10.16-5.07-1.14-10.33-.14-15.62,3-11.4,6.71-23.33,33.87-15.45,49.84C1251.43,559.83,1258.48,566.54,1274.27,566.54Z" transform="translate(-590.5 -321)"/><path class="cls-17" d="M1220.69,611.19l-75.17,44.54-3.06,26.48L1127,663.43l-19,11.74a2.79,2.79,0,0,0-.81,4.26,3.92,3.92,0,0,0,4.94.7l13.18-8.16,22.28,27,4.62-39.86,72.46-42.93a2.8,2.8,0,0,0,.91-4.25A3.91,3.91,0,0,0,1220.69,611.19Z" transform="translate(-590.5 -321)"/><path class="cls-14" d="M1325.8,630.71a3.75,3.75,0,0,0-4.61-1.68L1255.84,652a2.93,2.93,0,0,0-1.94,4,3.57,3.57,0,0,0,3.28,1.9,4.12,4.12,0,0,0,1.33-.22l65.34-22.92A2.94,2.94,0,0,0,1325.8,630.71Z" transform="translate(-590.5 -321)"/><path class="cls-8" d="M1265.9,480.1a4,4,0,0,0,5-.08l17.89-16,17.89,16a4,4,0,0,0,5,.08,2.77,2.77,0,0,0,.09-4.32l-18.08-16.2,18.08-16.2a2.77,2.77,0,0,0-.09-4.32,4,4,0,0,0-5,.08l-17.89,16-17.89-16a4,4,0,0,0-5-.08,2.77,2.77,0,0,0-.09,4.32l18.08,16.2-18.08,16.2A2.77,2.77,0,0,0,1265.9,480.1Z" transform="translate(-590.5 -321)"/><path class="cls-18" d="M1436.36,1380.11s-30.79,66.85-5,117.42l-591.88,4.29-54.62-4.29-48.14-25.74v-39.4l13.38-32.56,43.7-19.72Z" transform="translate(-590.5 -321)"/><path class="cls-10" d="M811.79,1508.33h639.47c4.16,0,7.54-2.92,7.54-6.51s-3.38-6.51-7.54-6.51H811.79c-38.6,0-70-25.15-70-56.06s31.4-56.06,70-56.06h639.47c4.16,0,7.54-2.91,7.54-6.51s-3.38-6.5-7.54-6.5H811.79c-46.92,0-85.09,31-85.09,69.07S764.87,1508.33,811.79,1508.33Z" transform="translate(-590.5 -321)"/><path class="cls-12" d="M1113.85,1440.7h313.82a1.46,1.46,0,1,0,0-2.89H1113.85a1.46,1.46,0,1,0,0,2.89Z" transform="translate(-590.5 -321)"/><path class="cls-12" d="M764.78,1440.7h304.88a1.46,1.46,0,1,0,0-2.89H764.78a1.46,1.46,0,1,0,0,2.89Z" transform="translate(-590.5 -321)"/><path class="cls-12" d="M773,1466.61H929.4a1.46,1.46,0,1,0,0-2.89H773a1.46,1.46,0,1,0,0,2.89Z" transform="translate(-590.5 -321)"/><path class="cls-12" d="M952.35,1466.61h475.32a1.46,1.46,0,1,0,0-2.89H952.35a1.46,1.46,0,1,0,0,2.89Z" transform="translate(-590.5 -321)"/><path class="cls-2" d="M811.79,1509.77h639.46c5.09,0,9.22-3.57,9.22-8s-4.13-8-9.22-8a1.46,1.46,0,1,0,0,2.9c3.24,0,5.87,2.27,5.87,5.06s-2.63,5.06-5.87,5.06H811.79c-46,0-83.41-30.34-83.41-67.63s37.41-67.63,83.41-67.63h639.46c3.24,0,5.87,2.27,5.87,5.06s-2.63,5.07-5.87,5.07a1.46,1.46,0,1,0,0,2.89c5.09,0,9.22-3.57,9.22-8s-4.13-8-9.22-8H811.79c-47.84,0-86.76,31.63-86.76,70.52S764,1509.77,811.79,1509.77Z" transform="translate(-590.5 -321)"/><path class="cls-5" d="M1258.62,1413.32s20.15,43.3,8.54,75.18l-16.37-21.82s-11.17,11.57-18,21.82c0,0-12.5-71.19-36.72-75.18Z" transform="translate(-590.5 -321)"/><path class="cls-12" d="M773,1414.77h654.69a1.46,1.46,0,1,0,0-2.89H773a1.46,1.46,0,1,0,0,2.89Z" transform="translate(-590.5 -321)"/><polygon class="cls-18" points="888.93 557.27 888.93 774.53 701.46 774.53 701.46 593.02 741.82 557.27 888.93 557.27"/><polygon class="cls-6" points="701.46 593.09 741.58 557.27 741.58 593.09 701.46 593.09"/><path class="cls-6" d="M1350.37,905.31h81.79a2,2,0,0,0,2.13-1.83h0a2,2,0,0,0-2.13-1.83h-81.79a2,2,0,0,0-2.12,1.83h0A2,2,0,0,0,1350.37,905.31Z" transform="translate(-590.5 -321)"/><path class="cls-6" d="M1339.22,919.52h104.09a2,2,0,0,0,2.13-1.83h0a2,2,0,0,0-2.13-1.83H1339.22a2,2,0,0,0-2.12,1.83h0A2,2,0,0,0,1339.22,919.52Z" transform="translate(-590.5 -321)"/><path class="cls-6" d="M1311.61,953.44h150.82a2,2,0,0,0,2.13-1.83h0a2,2,0,0,0-2.13-1.84H1311.61a2,2,0,0,0-2.13,1.84h0A2,2,0,0,0,1311.61,953.44Z" transform="translate(-590.5 -321)"/><path class="cls-6" d="M1311.61,969.48h150.82a2,2,0,0,0,2.13-1.83h0a2,2,0,0,0-2.13-1.83H1311.61a2,2,0,0,0-2.13,1.83h0A2,2,0,0,0,1311.61,969.48Z" transform="translate(-590.5 -321)"/><path class="cls-6" d="M1311.61,985.53h150.82a2,2,0,0,0,2.13-1.84h0a2,2,0,0,0-2.13-1.83H1311.61a2,2,0,0,0-2.13,1.83h0A2,2,0,0,0,1311.61,985.53Z" transform="translate(-590.5 -321)"/><path class="cls-6" d="M1311.61,1017.61h150.82a2,2,0,0,0,2.13-1.83h0a2,2,0,0,0-2.13-1.84H1311.61a2,2,0,0,0-2.13,1.84h0A2,2,0,0,0,1311.61,1017.61Z" transform="translate(-590.5 -321)"/><path class="cls-6" d="M1311.61,1033.65h150.82a2,2,0,0,0,2.13-1.83h0a2,2,0,0,0-2.13-1.83H1311.61a2,2,0,0,0-2.13,1.83h0A2,2,0,0,0,1311.61,1033.65Z" transform="translate(-590.5 -321)"/><path class="cls-6" d="M1311.61,1074.91h150.82a2,2,0,0,0,2.13-1.84h0a2,2,0,0,0-2.13-1.83H1311.61a2,2,0,0,0-2.13,1.83h0A2,2,0,0,0,1311.61,1074.91Z" transform="translate(-590.5 -321)"/><path class="cls-2" d="M926.7,719.41l2.26,8.28,2.29-2.47s4.49-11.88,1.39-17.59-15.52,2.5-15.52,2.5Z" transform="translate(-590.5 -321)"/><polygon class="cls-19" points="324.75 455.1 355.32 473.69 375.78 456.55 387.97 461.05 377.3 491.51 356.21 480.33 336.6 491.51 310.24 459.96 324.75 455.1"/><rect class="cls-20" x="122.02" y="805.1" width="799.28" height="60.08"/><path class="cls-18" d="M1419.41,1164.63H750.3a3.21,3.21,0,0,1-3.41-2.94h0a3.21,3.21,0,0,1,3.41-3h669.11a3.2,3.2,0,0,1,3.41,3h0A3.2,3.2,0,0,1,1419.41,1164.63Z" transform="translate(-590.5 -321)"/><path class="cls-21" d="M1116.14,1164.63H750.3a3.21,3.21,0,0,1-3.41-2.94h0a3.21,3.21,0,0,1,3.41-3h365.84a3.21,3.21,0,0,1,3.41,3h0A3.21,3.21,0,0,1,1116.14,1164.63Z" transform="translate(-590.5 -321)"/><ellipse class="cls-22" cx="527.4" cy="840.69" rx="6.61" ry="5.71"/><rect class="cls-21" x="855.61" y="827.35" width="5.51" height="27.59"/><rect class="cls-21" x="870.49" y="827.35" width="5.51" height="27.59"/><path class="cls-18" d="M1769.91,1380.11s20.11,66.85,3.25,117.42l386.57,4.29,35.67-4.29,31.44-25.74v-39.4l-8.74-32.57-28.54-19.71Z" transform="translate(-590.5 -321)"/><path class="cls-14" d="M2177.83,1508.33H1760.18c-2.72,0-4.92-2.92-4.92-6.51s2.2-6.51,4.92-6.51h417.65c25.22,0,45.72-25.15,45.72-56.06s-20.5-56.06-45.72-56.06H1760.18c-2.72,0-4.92-2.91-4.92-6.51s2.2-6.51,4.92-6.51h417.65c30.65,0,55.58,31,55.58,69.08S2208.48,1508.33,2177.83,1508.33Z" transform="translate(-590.5 -321)"/><path class="cls-12" d="M1775.59,1440.7h205c.6,0,1.09-.65,1.09-1.45s-.49-1.45-1.09-1.45h-205a1.51,1.51,0,0,0,0,2.9Z" transform="translate(-590.5 -321)"/><path class="cls-12" d="M2009.41,1440.7h199.12a1.51,1.51,0,0,0,0-2.9H2009.41c-.6,0-1.09.65-1.09,1.45S2008.81,1440.7,2009.41,1440.7Z" transform="translate(-590.5 -321)"/><path class="cls-12" d="M2101,1466.61h102.16a1.5,1.5,0,0,0,0-2.89H2101a1.5,1.5,0,0,0,0,2.89Z" transform="translate(-590.5 -321)"/><path class="cls-12" d="M1775.59,1466.61H2086c.6,0,1.09-.65,1.09-1.45a1.3,1.3,0,0,0-1.09-1.44H1775.59a1.5,1.5,0,0,0,0,2.89Z" transform="translate(-590.5 -321)"/><path class="cls-2" d="M1760.18,1509.77h417.65c31.25,0,56.67-31.63,56.67-70.52s-25.42-70.52-56.67-70.52H1760.18c-3.32,0-6,3.57-6,8s2.86,4.48,6.18,4.48a1.51,1.51,0,0,0,0-2.9c-2.11,0-4,1.21-4-1.58s1.72-5.06,3.83-5.06h417.65c30,0,54.48,30.34,54.48,67.63s-24.44,67.63-54.48,67.63H1760.18c-2.11,0-3.83-2.27-3.83-5.06s1.72-5.06,3.83-5.06a1.51,1.51,0,0,0,0-2.9c-3.32,0-6,3.57-6,8S1756.86,1509.77,1760.18,1509.77Z" transform="translate(-590.5 -321)"/><path class="cls-23" d="M1826.38,1413.32s-13.16,43.3-5.57,75.18l10.68-21.82a196.14,196.14,0,0,1,11.78,21.82s8.16-71.19,24-75.18Z" transform="translate(-590.5 -321)"/><path class="cls-12" d="M1775.59,1414.77h427.59a1.5,1.5,0,0,0,0-2.89H1775.59a1.5,1.5,0,0,0,0,2.89Z" transform="translate(-590.5 -321)"/><path class="cls-18" d="M2313.46,1241.72s-21.75,66.85-3.5,117.42l-418.16,4.28-38.59-4.28-34-25.74V1294l9.45-32.57,30.87-19.71Z" transform="translate(-590.5 -321)"/><path class="cls-24" d="M1872.21,1369.93H2324c2.94,0,5.33-2.91,5.33-6.51s-2.39-6.5-5.33-6.5H1872.21c-27.27,0-49.46-25.15-49.46-56.06s22.19-56.06,49.46-56.06H2324c2.94,0,5.33-2.92,5.33-6.51s-2.39-6.51-5.33-6.51H1872.21c-33.15,0-60.11,31-60.11,69.08S1839.06,1369.93,1872.21,1369.93Z" transform="translate(-590.5 -321)"/><path class="cls-12" d="M2307.32,1302.3h-221.7a1.47,1.47,0,0,1,0-2.89h221.7a1.47,1.47,0,0,1,0,2.89Z" transform="translate(-590.5 -321)"/><path class="cls-12" d="M2054.39,1302.3H1839a1.47,1.47,0,0,1,0-2.89h215.39a1.47,1.47,0,0,1,0,2.89Z" transform="translate(-590.5 -321)"/><path class="cls-12" d="M1955.3,1328.22H1844.79a1.48,1.48,0,0,1,0-2.9H1955.3a1.48,1.48,0,0,1,0,2.9Z" transform="translate(-590.5 -321)"/><path class="cls-12" d="M2307.32,1328.22h-335.8a1.48,1.48,0,0,1,0-2.9h335.8a1.48,1.48,0,0,1,0,2.9Z" transform="translate(-590.5 -321)"/><path class="cls-2" d="M2324,1371.38H1872.21c-33.8,0-61.3-31.64-61.3-70.52s27.5-70.52,61.3-70.52H2324c3.59,0,6.51,3.56,6.51,8s-2.92,8-6.51,8a1.48,1.48,0,0,1,0-2.9c2.28,0,4.14-2.27,4.14-5.06s-1.86-5.06-4.14-5.06H1872.21c-32.49,0-58.93,30.34-58.93,67.63s26.44,67.63,58.93,67.63H2324c2.28,0,4.14-2.27,4.14-5.07s-1.86-5.06-4.14-5.06a1.47,1.47,0,0,1,0-2.89c3.59,0,6.51,3.57,6.51,8S2327.58,1371.38,2324,1371.38Z" transform="translate(-590.5 -321)"/><path class="cls-4" d="M2252.38,1274.93s14.23,43.3,6,75.18l-11.56-21.83a191.56,191.56,0,0,0-12.73,21.83s-8.83-71.2-25.95-75.18Z" transform="translate(-590.5 -321)"/><path class="cls-12" d="M2307.32,1276.38H1844.79a1.48,1.48,0,0,1,0-2.9h462.53a1.48,1.48,0,0,1,0,2.9Z" transform="translate(-590.5 -321)"/><polygon class="cls-25" points="1305.09 1192.5 1309.54 1192.5 1299.78 1054.74 1288.79 1054.74 1305.09 1192.5"/><polygon class="cls-25" points="1149.88 1192.5 1145.43 1192.5 1155.18 1054.74 1166.17 1054.74 1149.88 1192.5"/><polygon class="cls-20" points="1340.74 862.12 1245.04 862.12 1194.41 1056.64 1304.08 1046.55 1340.74 862.12"/><path class="cls-26" d="M1711.57,1355.08s126.23,2.75,163.76,2.75c6.06,0,11.25-3.82,12.35-9.08l33.38-159.44c.89-4.29,5.64-7.09,10.5-6.14,4.63.91,7.52,5,6.66,9.12l-37.81,180.63a7.27,7.27,0,0,1-2,3.64,14.75,14.75,0,0,1-12.69,6.7H1712c-8,0-14.42-5.69-14.42-12.72h0C1697.61,1363.52,1703.61,1355.08,1711.57,1355.08Z" transform="translate(-590.5 -321)"/><path class="cls-2" d="M1875.33,1358.45c6.4,0,11.88-4,13.05-9.58l33.37-159.45a7,7,0,0,1,3.47-4.63,8.89,8.89,0,0,1,6.19-1,.71.71,0,0,0,.83-.47.61.61,0,0,0-.53-.74,10.4,10.4,0,0,0-7.27,1.19,8.27,8.27,0,0,0-4.07,5.43L1887,1348.64c-1,5-5.94,8.57-11.66,8.57a.66.66,0,0,0-.7.62A.67.67,0,0,0,1875.33,1358.45Z" transform="translate(-590.5 -321)"/><path class="cls-2" d="M1812.82,1384h0l68.13-.11c18.35,1.46,20.53-12.4,20.64-13.16l4.05-19.35a.62.62,0,0,0-.56-.72.7.7,0,0,0-.82.5l-4.07,19.42c-.06.55-1.75,13.48-19.15,12.08H1881l-68.17.11a.63.63,0,1,0,0,1.24Z" transform="translate(-590.5 -321)"/><path class="cls-2" d="M1894.37,1183.74h0l33.49,0a.66.66,0,0,0,.7-.62.67.67,0,0,0-.7-.62h0l-33.49,0a.62.62,0,1,0,0,1.24Z" transform="translate(-590.5 -321)"/><path class="cls-8" d="M1854.27,1246.7l-11,4.09-12.18,5s-18.92,2.83-19.19,2.78c0,0,1.57,2.43,1.57,2.43-23.47,2.5-97.45,5.12-109.6,6.29-7.32.7-14.36,8.56-18.79,14.69l6,3.51s64.61-2.46,64.48-1.29c0,.37-1.87,5.91-4.7,13.15,39.9,2.3,95.79,2.08,106.16-12.11C1865.6,1273.59,1857.3,1256.88,1854.27,1246.7Z" transform="translate(-590.5 -321)"/><polygon class="cls-8" points="1012.8 1175.96 1061.89 1176.54 1062.59 1136.93 1013.69 1131.71 1012.8 1175.96"/><path class="cls-6" d="M1552.84,1506.8l100.24-.14,0-17.26a16.94,16.94,0,0,0-18.4-4s-16.42,10.2-31.24-1.94l-37.09,13.68S1552.83,1500.94,1552.84,1506.8Z" transform="translate(-590.5 -321)"/><path class="cls-27" d="M1549.68,1506.73h103.4a0,0,0,0,1,0,0v6a0,0,0,0,1,0,0h-103.4a1.19,1.19,0,0,1-1.19-1.19v-3.67A1.19,1.19,0,0,1,1549.68,1506.73Z" transform="translate(-592.69 -318.67) rotate(-0.08)"/><path class="cls-28" d="M1592.43,1487.49l14.45,19.24h6.83l-15.92-21.21Z" transform="translate(-590.5 -321)"/><path class="cls-28" d="M1595.92,1506.74h6.83l-13.55-18-5.36,2Z" transform="translate(-590.5 -321)"/><path class="cls-5" d="M1756,1355.73s42.26.6,71.88-.28c9.51-.28,18,.3,23-.66,20.62-4,25.69-59.49,2.28-93.52s-105.31,70.45-105.31,70.45Z" transform="translate(-590.5 -321)"/><polygon class="cls-8" points="1088.99 1175.96 1138.09 1176.54 1138.79 1136.93 1089.89 1131.71 1088.99 1175.96"/><path class="cls-5" d="M1629.11,1506.8l100.24-.13,0-17.26a17,17,0,0,0-18.4-4s-16.42,10.2-31.24-1.94l-37.09,13.68S1629.1,1500.93,1629.11,1506.8Z" transform="translate(-590.5 -321)"/><path class="cls-29" d="M1626,1506.73h103.4a0,0,0,0,1,0,0v6a0,0,0,0,1,0,0H1626a1.19,1.19,0,0,1-1.19-1.19v-3.67a1.19,1.19,0,0,1,1.19-1.19Z" transform="translate(-592.47 -318.81) rotate(-0.07)"/><path class="cls-28" d="M1668.7,1487.49l14.45,19.24H1690l-15.92-21.21Z" transform="translate(-590.5 -321)"/><path class="cls-28" d="M1672.19,1506.74H1679l-13.55-18-5.36,2Z" transform="translate(-590.5 -321)"/><path class="cls-6" d="M1710.47,1281.4s-103.81,5.73-106.81,16.07-11.58,120.34-5.16,167.26c0,0,39.38,2.34,58.22-1.6l4.59-114.42,31.09-3.07,71.22-73.9Z" transform="translate(-590.5 -321)"/><path class="cls-5" d="M1760.34,1279.71s-80.06,19.49-83,29.84-11.53,108.5-5.11,155.43c0,0,42.35,2.09,61.19-1.85l5.08-107.93,18.26.55,44.3-67.26Z" transform="translate(-590.5 -321)"/><path class="cls-2" d="M1708,1466.25c18.71,0,25.38-2.43,25.7-2.55l.41-.16L1739,1355l-7.74,3.15.62,1.12,5.58-2.27-4.78,105.71c-2,.61-11.73,3-34.66,2.11L1698,1466C1701.61,1466.19,1704.94,1466.25,1708,1466.25Z" transform="translate(-590.5 -321)"/><path class="cls-2" d="M1725.51,1442.84c2-6.65,2.57-71.5,2.59-74.26h-1.45c0,.67-.59,67.45-2.54,74Z" transform="translate(-590.5 -321)"/><path class="cls-2" d="M1651.11,1351.15c9.49-2.65,22.56-3,22.69-3.05l0-1.24c-.13,0-13.4.4-23.09,3.11Z" transform="translate(-590.5 -321)"/><path class="cls-2" d="M1629.75,1466a148.83,148.83,0,0,0,27.14-2.28l.53-.11,4.64-115.7-5.92,4.12.91,1,3.46-2.41-4.49,112a152.3,152.3,0,0,1-27.67,2.14l0,1.25Z" transform="translate(-590.5 -321)"/><path class="cls-2" d="M1649.89,1445.25c2-10,.09-78,0-80.91l-1.45,0c0,.71,2,70.75,0,80.67Z" transform="translate(-590.5 -321)"/><path class="cls-2" d="M1787.77,1356.89c18.44,0,40.55-.54,65.4-2.15l-.11-1.24c-74,4.81-123.71,0-124.2,0l-.17,1.23C1729,1354.77,1751.16,1356.89,1787.77,1356.89Z" transform="translate(-590.5 -321)"/><path class="cls-30" d="M1762.42,1244.87c-1.43,0-58.94,21.32-58.94,21.32l11.59,19.14,32.28-6.11Z" transform="translate(-590.5 -321)"/><path class="cls-30" d="M1845.74,1155.92s24.45-.74,36.13,5c17.42,8.52,11.21,57.3,11.21,57.3s-14.8-7-15.7-9.29S1845.74,1155.92,1845.74,1155.92Z" transform="translate(-590.5 -321)"/><path class="cls-2" d="M1851.67,1261.81l-.09,0-18,3.55a.67.67,0,0,1-.8-.43.58.58,0,0,1,.5-.7l18-3.55a.68.68,0,0,1,.81.43A.57.57,0,0,1,1851.67,1261.81Z" transform="translate(-590.5 -321)"/><path class="cls-31" d="M1861.07,1252.58l-11,4.08-12.18,5s-18.92,2.83-19.19,2.78c0,0,1.57,2.43,1.57,2.43-23.47,2.5-97.45,5.12-109.59,6.29-7.33.71-14.36,8.56-18.8,14.69l6,3.51s64.6-2.46,64.47-1.28c0,.37-1.86,5.9-4.69,13.14,39.9,2.3,95.78,2.08,106.16-12.11C1872.4,1279.46,1864.1,1262.75,1861.07,1252.58Z" transform="translate(-590.5 -321)"/><path class="cls-30" d="M1869.41,1159.73c-13.9-1.66-50.57-2.81-50.57-2.81s-4.86,1.1-3.31.48c-40.49,6.18-45,32.09-45,32.09l-19.77,74.89-22,1c-7.12,11.64-1.89,43-1.89,43l106.55,10.36s23,3.28,42.51-18.28c12.88-14.26,17.27-58,17.26-90C1893.22,1210.49,1891,1162.31,1869.41,1159.73Z" transform="translate(-590.5 -321)"/><polygon class="cls-32" points="980.48 896.72 1081.92 896.72 1117.3 974.48 1015.86 974.48 980.48 896.72"/><polygon class="cls-33" points="1117.3 974.48 1112.01 974.48 1076.63 896.72 1081.92 896.72 1117.3 974.48"/><path class="cls-34" d="M1637.3,1254.12c1.4,3.57.37,7.1-2.3,7.89s-6-1.47-7.4-5-.37-7.1,2.3-7.89S1635.89,1250.55,1637.3,1254.12Z" transform="translate(-590.5 -321)"/><path class="cls-33" d="M1741.34,1289.2h-37.9v6.28h37.9a3.42,3.42,0,0,0,3.64-3.14h0A3.41,3.41,0,0,0,1741.34,1289.2Z" transform="translate(-590.5 -321)"/><rect class="cls-32" x="1117.3" y="970.35" width="23.94" height="0.98"/><path class="cls-2" d="M1833.6,1265.68a.77.77,0,0,1-.4,0,.59.59,0,0,1-.5-.7c.11-.41,11.25-41.26,16-67a.66.66,0,0,1,.77-.48.59.59,0,0,1,.56.66c-4.75,25.75-15.9,66.65-16,67.06A.62.62,0,0,1,1833.6,1265.68Z" transform="translate(-590.5 -321)"/><path class="cls-2" d="M1764.68,1265a.82.82,0,0,1-.44,0,.58.58,0,0,1-.44-.73c.17-.46,16.69-45.7,20.14-61.34a.68.68,0,0,1,.79-.46.59.59,0,0,1,.53.68c-3.47,15.71-20,61-20.18,61.47A.64.64,0,0,1,1764.68,1265Z" transform="translate(-590.5 -321)"/><path class="cls-2" d="M1831.84,1178.87q-.78.08-1.59.12a.53.53,0,0,1-.59-.45.51.51,0,0,1,.52-.51c23.17-1.41,27.47-16,27.5-16.19a.56.56,0,0,1,.65-.39.48.48,0,0,1,.46.53C1858.77,1162.13,1854.49,1176.85,1831.84,1178.87Z" transform="translate(-590.5 -321)"/><path class="cls-2" d="M1760,1254.21a.73.73,0,0,1-.82-.25l-4.51-6.68.05-.23,15.23-57.66c.09-.52,1.41-7.24,8-14.66,6.19-6.94,18.39-15.78,41.39-18.42a.66.66,0,0,1,.75.5.6.6,0,0,1-.57.65c-22.5,2.59-34.42,11.18-40.46,17.93-6.54,7.32-7.78,14.12-7.8,14.19v0l-15.17,57.47,4.24,6.28a.54.54,0,0,1-.24.8Z" transform="translate(-590.5 -321)"/><path class="cls-2" d="M1736.13,1254.42a.72.72,0,0,1-.87-.33.56.56,0,0,1,.38-.75l19.44-6.7a.74.74,0,0,1,.88.33.56.56,0,0,1-.38.75l-19.44,6.7Z" transform="translate(-590.5 -321)"/><path class="cls-30" d="M1728.79,1265.41s-7,14.32-1.89,43l25.71-11.91-7.63-21.45Z" transform="translate(-590.5 -321)"/><path class="cls-2" d="M1856.83,1266.19a.71.71,0,0,1-.26,0c-1,0-96.16-2.49-127.3-.27-.77,1.76-4.28,10.88-3.3,27.56a.62.62,0,0,1-.64.61.64.64,0,0,1-.7-.55c-1.12-18.9,3.36-28,3.55-28.4l.16-.32.4,0c30.78-2.28,126.91.21,127.88.24a.63.63,0,0,1,.65.6A.59.59,0,0,1,1856.83,1266.19Z" transform="translate(-590.5 -321)"/><path class="cls-8" d="M1813.31,1113.37l-.76,25.27s-.64,8.11,7.57,9.31l-1.86,10.81c-.7,4,2,7.93,6.43,9.26a29.37,29.37,0,0,0,7.74,1.21c9.41.21,14.7-5.77,15.57-8.8s-1-17.63-1-17.63l.5-7.15-.23-27.74Z" transform="translate(-590.5 -321)"/><path class="cls-11" d="M1839.42,1141.48s-1,13.59-20.68,14.44l1.38-8S1832.81,1150.45,1839.42,1141.48Z" transform="translate(-590.5 -321)"/><path class="cls-10" d="M1835.64,1127.13a.44.44,0,0,0,.27-.09.31.31,0,0,0,0-.48s-5.31-4.93-10.34-1.61a.31.31,0,0,0-.07.47.44.44,0,0,0,.55.07c4.46-2.94,9.08,1.35,9.28,1.53A.39.39,0,0,0,1835.64,1127.13Z" transform="translate(-590.5 -321)"/><path class="cls-32" d="M1849.26,1123.88l-8.51,1.33-1.57,1.34s1.1-12.23,2.77-14.61S1849.26,1123.88,1849.26,1123.88Z" transform="translate(-590.5 -321)"/><path class="cls-10" d="M1819.53,1124.74a.46.46,0,0,0,.3-.11.31.31,0,0,0,0-.48c-.16-.12-3.82-3-6.24-1.27a.31.31,0,0,0,0,.48.45.45,0,0,0,.55.05c1.89-1.33,5.17,1.21,5.21,1.24A.38.38,0,0,0,1819.53,1124.74Z" transform="translate(-590.5 -321)"/><path d="M1827.66,1128.32a1.1,1.1,0,0,0,1.15,1,1.11,1.11,0,0,0,1.21-1,1.1,1.1,0,0,0-1.15-1A1.12,1.12,0,0,0,1827.66,1128.32Z" transform="translate(-590.5 -321)"/><path d="M1815.19,1127a1.09,1.09,0,0,0,1.14,1,1.12,1.12,0,0,0,1.21-1,1.08,1.08,0,0,0-1.14-1A1.12,1.12,0,0,0,1815.19,1127Z" transform="translate(-590.5 -321)"/><path class="cls-8" d="M1837.39,1128.19c-.1,3.36,3,6.16,6.88,6.25s7.14-2.57,7.24-5.94-3-6.16-6.87-6.25S1837.49,1124.82,1837.39,1128.19Z" transform="translate(-590.5 -321)"/><path class="cls-11" d="M1845.59,1131.75a2.89,2.89,0,0,0,2.82-1.84,2.21,2.21,0,0,0-1-2.8,3.76,3.76,0,0,0-3.71,0,2.94,2.94,0,0,1,1.47-1.46,5.16,5.16,0,0,1,3.14-.11.2.2,0,0,0,.25-.1.16.16,0,0,0-.11-.22,5.54,5.54,0,0,0-3.45.12,3.39,3.39,0,0,0-1.87,2.18l-.19.59.51-.42a3.43,3.43,0,0,1,3.75-.32,1.91,1.91,0,0,1,.87,2.42,2.49,2.49,0,0,1-2.44,1.61h0a.18.18,0,0,0-.2.17.17.17,0,0,0,.19.17Z" transform="translate(-590.5 -321)"/><path class="cls-11" d="M1823.31,1135.08a.2.2,0,0,0,.19-.11.17.17,0,0,0-.12-.22l-3.9-1.21,1.48-8a.16.16,0,0,0-.16-.19.18.18,0,0,0-.22.14l-1.54,8.23,4.21,1.31Z" transform="translate(-590.5 -321)"/><path class="cls-35" d="M1826.25,1138.44c-.12,0-7.76-.35-7.76-.35a4.29,4.29,0,0,0,3.72,2.88A4.44,4.44,0,0,0,1826.25,1138.44Z" transform="translate(-590.5 -321)"/><path class="cls-32" d="M1849.26,1123.88s2.74-11.81-1.33-16.32-28-12.8-31-10.66-.15,4.9-.15,4.9-9.61-2.9-12,4.47,18.34,11,30.89,7.81A27.65,27.65,0,0,1,1849.26,1123.88Z" transform="translate(-590.5 -321)"/><path class="cls-2" d="M1852,1317.09c-1.58.51-3.07.91-4.44,1.23a42.9,42.9,0,0,1-14.23,1.07.6.6,0,0,1-.55-.67.66.66,0,0,1,.77-.48,41.78,41.78,0,0,0,13.74-1.06c7.35-1.69,18.2-6,28.13-17,12.46-13.79,17-56.24,17.12-88.41a.68.68,0,0,1,1.34,0c-.11,32.35-4.73,75.1-17.4,89.12A56.58,56.58,0,0,1,1852,1317.09Z" transform="translate(-590.5 -321)"/><path class="cls-10" d="M2036.57,1019.9s3.67,28.44,8.59,28.73-3.4,33.59-16.44,17.27c-4.57-5.71-4.37-43.13,6.54-51.13S2036.57,1019.9,2036.57,1019.9Z" transform="translate(-590.5 -321)"/><path class="cls-8" d="M2034.78,1012.76s-4.53,26.87-.45,31.65c0,0,2,2.55,6.86,2.68l-.39,15.79,22-2.17.74-44.91s-6.27-11.1-6.28-10.64S2034.78,1012.76,2034.78,1012.76Z" transform="translate(-590.5 -321)"/><path class="cls-11" d="M2041.48,1035.18a.14.14,0,0,0,.14-.13.18.18,0,0,0-.1-.21c-.91-.25-1.46-1.61-1.62-2.06a5,5,0,0,0,2.4-3.21,6.5,6.5,0,0,0-.67-4.17.13.13,0,0,0-.2-.05.2.2,0,0,0,0,.24,6.18,6.18,0,0,1,.62,3.89,4.75,4.75,0,0,1-2.36,3.07l-.11.06,0,.15c0,.08.64,2.08,1.86,2.42Z" transform="translate(-590.5 -321)"/><path class="cls-11" d="M2041.1,1052.46l.09-5.37s10.53-.4,17-3.84C2058.23,1043.25,2049.35,1050.42,2041.1,1052.46Z" transform="translate(-590.5 -321)"/><path class="cls-10" d="M2056,1026.28a.42.42,0,0,0,.28-.1.31.31,0,0,0,0-.48s-5.08-4.61-9.79-1.43a.31.31,0,0,0-.07.48.44.44,0,0,0,.56.06c4.14-2.79,8.53,1.19,8.72,1.36A.46.46,0,0,0,2056,1026.28Z" transform="translate(-590.5 -321)"/><path class="cls-10" d="M2039.67,1025.36a.42.42,0,0,0,.3-.12.31.31,0,0,0,0-.48c-.15-.12-3.65-2.78-5.92-1.14a.31.31,0,0,0,0,.48.44.44,0,0,0,.56.05c1.74-1.26,4.85,1.1,4.88,1.12A.39.39,0,0,0,2039.67,1025.36Z" transform="translate(-590.5 -321)"/><path d="M2048,1028.09a1.05,1.05,0,0,0,1.1,1,1,1,0,1,0-1.1-1Z" transform="translate(-590.5 -321)"/><path d="M2035.07,1028a1,1,0,0,0,1.09,1,1,1,0,1,0-1.09-1Z" transform="translate(-590.5 -321)"/><path class="cls-35" d="M2046.94,1036.78c-.12,0-7.83.73-7.83.73a4.6,4.6,0,0,0,4.26,2.36A4.25,4.25,0,0,0,2046.94,1036.78Z" transform="translate(-590.5 -321)"/><path class="cls-8" d="M2044.32,1013.28l5.34-6.39s-8.58,4.63-7.87,4.82A13.15,13.15,0,0,1,2044.32,1013.28Z" transform="translate(-590.5 -321)"/><path class="cls-10" d="M2060.35,1010.25s-1.54,10-29.35,12c0,0-6.46-14.82,13.74-19.78s22,8.41,21.62,8.29S2060.35,1010.25,2060.35,1010.25Z" transform="translate(-590.5 -321)"/><path class="cls-10" d="M2056.15,1015.87a88.2,88.2,0,0,1,7.52,11.34s-9.28,42,9.44,39.62l3.34,0c16.56-.19,5.1-31.13,4.82-47.54-.17-10.28-14.63-20.72-24-14.46S2056.15,1015.87,2056.15,1015.87Z" transform="translate(-590.5 -321)"/><ellipse class="cls-8" cx="1474.63" cy="711.42" rx="6.21" ry="5.36"/><path class="cls-11" d="M2065.53,1035.74a2.58,2.58,0,0,0,2.49-1.66,2,2,0,0,0-.95-2.49,3.33,3.33,0,0,0-3.22,0,2.5,2.5,0,0,1,1.23-1.23,4.51,4.51,0,0,1,2.74-.12.19.19,0,0,0,.25-.1.17.17,0,0,0-.12-.22,4.84,4.84,0,0,0-3,.14,3,3,0,0,0-1.63,2l-.19.59.52-.43a3,3,0,0,1,3.26-.31,1.67,1.67,0,0,1,.78,2.1,2.15,2.15,0,0,1-2.13,1.41.2.2,0,0,0-.21.17.19.19,0,0,0,.19.18Z" transform="translate(-590.5 -321)"/><path class="cls-10" d="M2033.54,1008.22s-9.64,8.78-7.43,34l6.65-24.92Z" transform="translate(-590.5 -321)"/><polygon class="cls-8" points="1418.06 1057.05 1453.54 1047.47 1440.55 1011.59 1403.63 1016.93 1418.06 1057.05"/><path class="cls-36" d="M1984.88,1404.47l63.69-33.12-7.65-11s-8.31-2.85-13.49,3.5c0,0-5.92,11.9-20.72,9.06l-17.54,20.92S1982.28,1400.74,1984.88,1404.47Z" transform="translate(-590.5 -321)"/><path class="cls-29" d="M2051.25,1375.19l-64.87,33.73a2,2,0,0,1-2.54-.55l-.77-1.1a1.47,1.47,0,0,1,.63-2.19l64.87-33.73Z" transform="translate(-590.5 -321)"/><polygon class="cls-8" points="1429.07 956.7 1412.62 927.85 1448.02 912.82 1464.47 941.67 1429.07 956.7"/><path class="cls-4" d="M2063.71,1225.19c-.82,0-30.91,11.5-30.91,11.5l-9.59,5.4s14.65,86.17,17.38,109.18c0,0-21.22,12.92-42.72,13.38,0,0-44.34-133.39-44.34-150.34s94.32-57.09,94.32-57.09l42.91,21.37s64.49,4.58,79.32,13.26S2055,1251.33,2055,1251.33Z" transform="translate(-590.5 -321)"/><path class="cls-4" d="M2030.56,1233.47s72.8-37.47,97.83-43.3,43-.9,45.7,5.9,5.44,26.07,0,32.41-100.38,36.62-122.15,41.79C2051.94,1270.27,2032.57,1250.84,2030.56,1233.47Z" transform="translate(-590.5 -321)"/><path class="cls-2" d="M2172.93,1195.29c-5.76-10-65.67-15.13-69.13-14.68a.75.75,0,0,1-.8-.23.53.53,0,0,1,.18-.82c1-.61,17.85,1.14,18,1.16a304.28,304.28,0,0,1,32.56,5.08c11.65,2.66,18.51,5.67,20.4,9a.56.56,0,0,1-.31.8.81.81,0,0,1-.31.06A.7.7,0,0,1,2172.93,1195.29Zm-69.16-14.68Zm.18-.07Z" transform="translate(-590.5 -321)"/><path class="cls-2" d="M2037.83,1252.1a.77.77,0,0,0,.36-.09.55.55,0,0,0,.22-.82,38.7,38.7,0,0,1-7.21-18.26c4-2.32,44.23-25.32,101-46.27a.57.57,0,0,0,.36-.78.74.74,0,0,0-.91-.32c-59.69,22-101.15,46.34-101.56,46.58l-.31.19v.33a39,39,0,0,0,7.45,19.17A.77.77,0,0,0,2037.83,1252.1Z" transform="translate(-590.5 -321)"/><path class="cls-2" d="M2119.24,1191.32a.77.77,0,0,0,.54-.22c2.63-2.9,7.51-5.37,7.55-5.4a.55.55,0,0,0,.25-.81.75.75,0,0,0-.94-.21,32.11,32.11,0,0,0-7.95,5.68.55.55,0,0,0,.12.84A.82.82,0,0,0,2119.24,1191.32Z" transform="translate(-590.5 -321)"/><path class="cls-2" d="M1969.47,1276.46l.16,0a.6.6,0,0,0,.51-.72c-.14-.5-14.25-50.87-16-59.56-1.68-8.32,19-20.52,19.26-20.64a.54.54,0,0,0,.19-.82.75.75,0,0,0-1-.16c-.88.51-21.68,12.75-19.85,21.83,1.76,8.72,15.88,59.13,16,59.63A.68.68,0,0,0,1969.47,1276.46Z" transform="translate(-590.5 -321)"/><path class="cls-2" d="M2014.52,1247.18a.74.74,0,0,0,.37-.1l16.75-9.24a.54.54,0,0,0,.21-.82.77.77,0,0,0-.95-.18l-16.75,9.24a.54.54,0,0,0-.21.82A.71.71,0,0,0,2014.52,1247.18Z" transform="translate(-590.5 -321)"/><path class="cls-2" d="M1997.81,1365.25h.09c1.24-.14,30.55-3.66,43.08-13.53l.27-.21,0-.31-12.65-81-3.75-28.81a.68.68,0,0,0-.77-.52.61.61,0,0,0-.6.65l3.76,28.83,12.6,80.7c-12.37,9.47-41.78,13-42.08,13a.62.62,0,0,0-.59.66A.68.68,0,0,0,1997.81,1365.25Z" transform="translate(-590.5 -321)"/><path class="cls-2" d="M2163.7,1229.63a.8.8,0,0,0,.4-.11c7.85-5,7.79-9.29,7.78-9.47a.7.7,0,0,0-1.38,0c0,.07,0,3.92-7.21,8.48a.54.54,0,0,0-.15.83A.71.71,0,0,0,2163.7,1229.63Z" transform="translate(-590.5 -321)"/><path class="cls-2" d="M2156.65,1228.52a1,1,0,0,0,.33-.07c8.6-3.94,9.27-8.2,9.29-8.38a.61.61,0,0,0-.6-.66.67.67,0,0,0-.76.52c0,.06-.71,3.87-8.58,7.47a.56.56,0,0,0-.29.8A.74.74,0,0,0,2156.65,1228.52Z" transform="translate(-590.5 -321)"/><path class="cls-5" d="M2040,1107.26l13.4-48.57h36.52c3.87,0,9.22,2.21,9.44,2.3,14.66,6.73,55,45.08,53,69.24-1.83,21.94-38.41,17.58-74.88,22.66l-8.1-29.09,13.18-3Z" transform="translate(-590.5 -321)"/><path class="cls-5" d="M2052.08,1114.43v-55.74h-36.51c-3.88,0-9.22,2.21-9.45,2.3-14.65,6.73-60,46.29-58,70.46,1.83,21.93,44.61,21,64.66,26.39l11.14-34.78-1-1.77Z" transform="translate(-590.5 -321)"/><path class="cls-5" d="M1992.89,1122l.47,60.8s63.76,10,120.54-3c1.39-.32-2.67-50.25-2.67-50.25s0-9.68-5.91-12.68-54.21-21.48-55.37-21.48S1992.89,1122,1992.89,1122Z" transform="translate(-590.5 -321)"/><path class="cls-2" d="M2054,1075.59a.66.66,0,0,1-.69-.56.63.63,0,0,1,.64-.63c20.95-1.14,27.79-13.52,27.86-13.65a.73.73,0,0,1,.91-.29.56.56,0,0,1,.34.79c-.07.13-7.21,13.15-29,14.34Z" transform="translate(-590.5 -321)"/><path class="cls-8" d="M2030.93,1058.69h46.19s-8.35,12.48-24.31,12.42C2045.49,1071.09,2037.66,1068.77,2030.93,1058.69Z" transform="translate(-590.5 -321)"/><path class="cls-37" d="M2059.39,1139.08c2.93-2.56.22-5.82.22-5.82,1.09-3.87-.11-5.57-.11-5.57s-12.32,3.15-19.32,5.39c-4-.51-5.35-2.18-5.35-2.18l-.1.15c-.08-3-.17-6.65-.17-7.07,0-.7-1.31-1.83-3.35.4a97,97,0,0,0-6,8.22l-10.21-5.17-8.3,24.77s24.76,3,28.57,3.26,17.06-2.46,21-5.28,3.09-5.34,3.09-5.34A3.9,3.9,0,0,0,2059.39,1139.08Z" transform="translate(-590.5 -321)"/><path class="cls-30" d="M2032.52,1122.69v7.67a8.55,8.55,0,0,0,7.66,2.72l3.82-1.22-3-11.15Z" transform="translate(-590.5 -321)"/><path class="cls-11" d="M2051.23,1137.07a.46.46,0,0,1-.44-.28.39.39,0,0,1,.3-.5,61,61,0,0,0,8.29-3.37.51.51,0,0,1,.63.15.37.37,0,0,1-.17.54,60.75,60.75,0,0,1-8.47,3.44Z" transform="translate(-590.5 -321)"/><path class="cls-11" d="M2051.23,1142.09a.47.47,0,0,1-.46-.33.41.41,0,0,1,.37-.46,31.77,31.77,0,0,0,8-2.56.5.5,0,0,1,.63.14.37.37,0,0,1-.16.54,31.79,31.79,0,0,1-8.32,2.66Z" transform="translate(-590.5 -321)"/><path class="cls-11" d="M2052.25,1147.81a.44.44,0,0,1-.45-.31.39.39,0,0,1,.35-.47,27.13,27.13,0,0,0,7-2.52.49.49,0,0,1,.63.12.35.35,0,0,1-.14.54,27,27,0,0,1-7.3,2.63Z" transform="translate(-590.5 -321)"/><path class="cls-5" d="M2022.37,1127.88l-14.06-3s-7.92,17-7.92,17.53,4,15.52,4.46,15.45,5-4.09,5-4.09Z" transform="translate(-590.5 -321)"/><path class="cls-2" d="M1996.54,1116.84l-6.92-1a.75.75,0,0,1-.7-.83.83.83,0,0,1,1-.59l5.85.8,13-17.33a.91.91,0,0,1,1.15-.21.67.67,0,0,1,.25,1Z" transform="translate(-590.5 -321)"/><path class="cls-2" d="M1999.14,1074.53a.72.72,0,0,0,.56-.25c5.2-6.44,9.63-6.45,9.62-6.45h0a.6.6,0,1,0,0-1.19h0c-.26,0-5.22.09-10.76,7a.55.55,0,0,0,.18.83A.76.76,0,0,0,1999.14,1074.53Z" transform="translate(-590.5 -321)"/><path class="cls-2" d="M2000.61,1080.58a.7.7,0,0,0,.62-.33c4-6.9,8.39-7.59,8.43-7.6a.61.61,0,0,0,.57-.67.66.66,0,0,0-.77-.5c-.21,0-5.13.71-9.46,8.24a.56.56,0,0,0,.31.8A.8.8,0,0,0,2000.61,1080.58Z" transform="translate(-590.5 -321)"/><path class="cls-11" d="M2039.44,1128.93a.5.5,0,0,0,.49-.19.37.37,0,0,0-.17-.54,56.76,56.76,0,0,1-7.3-4.78.51.51,0,0,0-.65,0,.36.36,0,0,0,0,.56,57.12,57.12,0,0,0,7.47,4.88Z" transform="translate(-590.5 -321)"/><path class="cls-11" d="M2038.24,1133.84a.48.48,0,0,0,.52-.24.37.37,0,0,0-.25-.51,29.42,29.42,0,0,1-7.23-3.94.51.51,0,0,0-.65,0,.36.36,0,0,0,0,.56,29.33,29.33,0,0,0,7.5,4.09Z" transform="translate(-590.5 -321)"/><path class="cls-11" d="M2035.87,1139.26a.48.48,0,0,0,.52-.23.37.37,0,0,0-.24-.52,25,25,0,0,1-6.24-3.71.5.5,0,0,0-.65,0,.36.36,0,0,0,0,.56,25.2,25.2,0,0,0,6.51,3.87Z" transform="translate(-590.5 -321)"/><path class="cls-2" d="M2098.6,1116.45l7,.3a.8.8,0,0,0,.88-.69.76.76,0,0,0-.79-.75l-5.92-.26-8.61-19.28a.88.88,0,0,0-1.08-.41.7.7,0,0,0-.48.93Z" transform="translate(-590.5 -321)"/><path class="cls-5" d="M2069.33,1123.8l7.22,29.86s14.86-10.44,14.86-11.57-4.71-15-5.2-15.29S2069.33,1123.8,2069.33,1123.8Z" transform="translate(-590.5 -321)"/><path class="cls-2" d="M2076.07,1154.42l.73,0a145.44,145.44,0,0,0,37.51-8.21.7.7,0,0,0,.44-1,.87.87,0,0,0-1.09-.38,145.24,145.24,0,0,1-36.23,8.05l-6.19-28.13,28.21-8.33a.7.7,0,0,0,.52-.91.87.87,0,0,0-1.06-.45l-29.58,8.73Z" transform="translate(-590.5 -321)"/><path class="cls-2" d="M2018.69,1154.42l-.74,0a145.33,145.33,0,0,1-37.5-8.21.69.69,0,0,1-.45-1,.88.88,0,0,1,1.1-.38,145.29,145.29,0,0,0,36.22,8.05l6.19-28.13-28.21-8.33a.7.7,0,0,1-.52-.91.87.87,0,0,1,1.06-.45l29.58,8.73Z" transform="translate(-590.5 -321)"/><rect class="cls-10" x="1387.64" y="793.43" width="142.34" height="72.18" rx="6.29"/><path class="cls-18" d="M2056.45,1144.44c0-2.71-2.54-4.9-5.68-4.9s-5.69,2.19-5.69,4.9,2.55,4.91,5.69,4.91S2056.45,1147.15,2056.45,1144.44Z" transform="translate(-590.5 -321)"/><rect class="cls-18" x="1001.98" y="636.68" width="210.26" height="111.89" rx="8.17"/><path class="cls-17" d="M1783,978.05H1607.68a1.92,1.92,0,1,1,0-3.79H1783a1.91,1.91,0,1,1,0,3.79Z" transform="translate(-590.5 -321)"/><path class="cls-17" d="M1783,999.59H1607.68a1.92,1.92,0,1,1,0-3.79H1783a1.91,1.91,0,1,1,0,3.79Z" transform="translate(-590.5 -321)"/><path class="cls-17" d="M1721.59,1021.12H1607.68a1.92,1.92,0,1,1,0-3.79h113.91a1.92,1.92,0,1,1,0,3.79Z" transform="translate(-590.5 -321)"/><path class="cls-17" d="M1784.3,1021.12h-45.46a1.92,1.92,0,1,1,0-3.79h45.46a1.92,1.92,0,1,1,0,3.79Z" transform="translate(-590.5 -321)"/><path class="cls-17" d="M1679.28,1042.66h-71.6a1.92,1.92,0,1,1,0-3.79h71.6a1.92,1.92,0,1,1,0,3.79Z" transform="translate(-590.5 -321)"/><path class="cls-17" d="M1784.3,1042.66h-89a1.92,1.92,0,1,1,0-3.79h89a1.92,1.92,0,1,1,0,3.79Z" transform="translate(-590.5 -321)"/><path class="cls-18" d="M1738.45,1064.63c.21.75,34.06,38.76,34.28,37.64s-3.91-40.83-3.91-40.83Z" transform="translate(-590.5 -321)"/><path class="cls-18" d="M2121.5,944l-202,8.27a8.16,8.16,0,0,1-8.17-8.17V875.84a8.17,8.17,0,0,1,8.17-8.17h193.91a8.17,8.17,0,0,1,8.17,8.17V944.1C2121.6,948.62,2126,944,2121.5,944Z" transform="translate(-590.5 -321)"/><path class="cls-17" d="M2101.86,888H1926.54a1.92,1.92,0,1,1,0-3.79h175.32a1.91,1.91,0,1,1,0,3.79Z" transform="translate(-590.5 -321)"/><path class="cls-17" d="M2101.86,909.58H1926.54a1.92,1.92,0,1,1,0-3.79h175.32a1.91,1.91,0,1,1,0,3.79Z" transform="translate(-590.5 -321)"/><path class="cls-17" d="M2103.16,931.11H2057.7a1.92,1.92,0,1,1,0-3.79h45.46a1.92,1.92,0,1,1,0,3.79Z" transform="translate(-590.5 -321)"/><path class="cls-18" d="M2057.31,949.82c.21.75,34.06,38.77,34.28,37.64s-3.91-40.82-3.91-40.82Z" transform="translate(-590.5 -321)"/><path class="cls-17" d="M2039.62,931.11H1932.93c-2.85,0-5.16-.85-5.16-1.89s2.31-1.9,5.16-1.9h106.69c2.84,0,5.15.85,5.15,1.9S2042.46,931.11,2039.62,931.11Z" transform="translate(-590.5 -321)"/><path class="cls-18" d="M1559.32,451.09c33.47-.33,111.88,0,179.46,8.09,28,3.36,53.73-16.17,55-42,.52-10.59-2.73-23.07-12.42-37.46-37.35-55.43-112.82-7.22-114.12,20.05,0,0-11.5-41.64-56.07-36.33S1577.8,429,1577.8,429s-14-3.36-24.31,2.38C1543.36,437.07,1547.56,451.21,1559.32,451.09Z" transform="translate(-590.5 -321)"/><path class="cls-18" d="M755,579c54.07-3.71,186-11.09,265.66-1.57,11.52,1.38,19-10.33,11.37-17.89-5.5-5.46-15.21-10-32.23-10.5,0,0,15-63.84-56.47-69.24-73.44-5.54-73.67,61.47-73.67,61.47s-43.3-34.77-63.6,8.9c0,0-45.5-16.73-65.8,4.69C730.64,564.9,739.9,580,755,579Z" transform="translate(-590.5 -321)"/><rect class="cls-2" x="675.5" y="1515" width="1585" transform="translate(2345.5 2709) rotate(180)"/><path class="cls-35" d="M968.9,747.1c-.22-.05-14.37-1.12-14.37-1.12s1.41,5.16,6.67,5.57S968.9,747.1,968.9,747.1Z" transform="translate(-590.5 -321)"/></svg>