<svg xmlns="http://www.w3.org/2000/svg" xmlns:xlink="http://www.w3.org/1999/xlink" viewBox="0 0 3710 3710"><defs><style>.cls-1,.cls-26{fill:#fff;}.cls-2,.cls-8{fill:#ed1c24;}.cls-2{opacity:0.22;}.cls-3{fill:#91b3fa;}.cls-4{fill:#bdd0fb;}.cls-5{fill:url(#linear-gradient);}.cls-6{fill:url(#linear-gradient-2);}.cls-7{fill:url(#linear-gradient-3);}.cls-9{fill:url(#linear-gradient-4);}.cls-10{fill:url(#linear-gradient-5);}.cls-11{fill:url(#linear-gradient-6);}.cls-12{fill:#c1272d;}.cls-13{fill:url(#linear-gradient-7);}.cls-14{fill:url(#linear-gradient-8);}.cls-15{fill:url(#linear-gradient-9);}.cls-16{fill:url(#linear-gradient-10);}.cls-17{fill:url(#linear-gradient-11);}.cls-18{fill:url(#linear-gradient-12);}.cls-19{fill:url(#linear-gradient-13);}.cls-20{fill:url(#linear-gradient-14);}.cls-21{fill:url(#linear-gradient-15);}.cls-22{fill:url(#linear-gradient-16);}.cls-23{fill:url(#linear-gradient-17);}.cls-24{opacity:0.68;}.cls-25{fill:url(#linear-gradient-18);}.cls-26{opacity:0.64;}</style><linearGradient id="linear-gradient" x1="910.18" y1="2592.45" x2="1512.15" y2="2592.45" gradientUnits="userSpaceOnUse"><stop offset="0" stop-color="#dae3fe"/><stop offset="1" stop-color="#e9effd"/></linearGradient><linearGradient id="linear-gradient-2" x1="2260.31" y1="2620.57" x2="2912.06" y2="2620.57" xlink:href="#linear-gradient"/><linearGradient id="linear-gradient-3" x1="1864.37" y1="1359" x2="1893.67" y2="1108.32" gradientUnits="userSpaceOnUse"><stop offset="0" stop-color="#febbba"/><stop offset="1" stop-color="#ff928e"/></linearGradient><linearGradient id="linear-gradient-4" x1="1891.68" y1="1078.4" x2="1880.47" y2="755.42" xlink:href="#linear-gradient-3"/><linearGradient id="linear-gradient-5" x1="2043.05" y1="1073.15" x2="2031.85" y2="750.17" xlink:href="#linear-gradient-3"/><linearGradient id="linear-gradient-6" x1="1741.11" y1="1083.63" x2="1729.9" y2="760.65" xlink:href="#linear-gradient-3"/><linearGradient id="linear-gradient-7" x1="1908.04" y1="1891.5" x2="1913.06" y2="2363.75" gradientUnits="userSpaceOnUse"><stop offset="0" stop-color="#09005d"/><stop offset="1" stop-color="#1a0f91"/></linearGradient><linearGradient id="linear-gradient-8" x1="1913.97" y1="2148.23" x2="1841.2" y2="3253.03" xlink:href="#linear-gradient-7"/><linearGradient id="linear-gradient-9" x1="2323.1" y1="1643.97" x2="2324.15" y2="1869.8" gradientUnits="userSpaceOnUse"><stop offset="0" stop-color="#ff928e"/><stop offset="1" stop-color="#fe7062"/></linearGradient><linearGradient id="linear-gradient-10" x1="3409.75" y1="2899.64" x2="3411.8" y2="3342.41" gradientTransform="matrix(0.65, -0.76, 0.76, 0.65, -2438.93, 2092.93)" xlink:href="#linear-gradient-9"/><linearGradient id="linear-gradient-11" x1="2355.42" y1="1763.42" x2="2356.25" y2="1942.21" xlink:href="#linear-gradient-9"/><linearGradient id="linear-gradient-12" x1="2347.45" y1="1895.73" x2="2347.76" y2="1961.34" xlink:href="#linear-gradient-9"/><linearGradient id="linear-gradient-13" x1="1619.28" y1="1534.64" x2="1456.1" y2="1808.09" xlink:href="#linear-gradient-9"/><linearGradient id="linear-gradient-14" x1="2341.83" y1="1661.35" x2="2343.89" y2="2104.12" gradientTransform="matrix(-0.65, -0.76, -0.76, 0.65, 4627.27, 2092.93)" xlink:href="#linear-gradient-9"/><linearGradient id="linear-gradient-15" x1="724.94" y1="1763.38" x2="725.77" y2="1942.21" gradientTransform="matrix(-1, 0, 0, 1, 2188.35, 0)" xlink:href="#linear-gradient-9"/><linearGradient id="linear-gradient-16" x1="718.63" y1="1895.68" x2="718.94" y2="1961.35" gradientTransform="matrix(-1, 0, 0, 1, 2188.35, 0)" xlink:href="#linear-gradient-9"/><linearGradient id="linear-gradient-17" x1="2047.57" y1="1002.64" x2="1888.8" y2="2107.45" xlink:href="#linear-gradient-7"/><linearGradient id="linear-gradient-18" x1="2967.84" y1="221.2" x2="2478.29" y2="1286.32" xlink:href="#linear-gradient-3"/></defs><g id="Background"><rect class="cls-1" width="3710" height="3710"/></g><g id="Illustration"><path class="cls-2" d="M3106.23,2344.46c-276.72,632.21-1007.15,903.76-1579.45,857.46-156.26-12.65-470.66-38.08-716.15-265-471.44-435.79-398.84-1346.7,52.47-1883,58.12-69.06,460.41-531.78,1087.3-525.59,459,4.54,781.13,258,820.3,289.54,49.49,39.88,158.63,134.66,257,285C3258.83,1456.19,3279.14,1949.39,3106.23,2344.46Z"/><path class="cls-3" d="M1661.08,1837.24c-45-139.33-131.16-250.25-232.92-315.33-91-58.17-156.75-149-181.47-254q-3.9-16.56-9.25-33.17c-54.07-167.57-200.58-270.29-327.24-229.42S724.7,1215.2,778.77,1382.78a412.71,412.71,0,0,0,43.81,94c56.9,89.86,79.54,197.76,59.29,302.22-18.09,93.36-12.52,198.41,21.19,302.87,50.27,155.8,152.1,276.08,269.6,336.47a409.12,409.12,0,0,1,117.86,90.81c55.32,61.84,133,90.77,204.1,67.83,76.71-24.75,124.32-103,127.31-194.07,1.7-51.55,13.52-102.11,33-149.94C1700.81,2120.05,1706.53,1978.12,1661.08,1837.24Z"/><path class="cls-4" d="M1012.07,1169.31c52.29,105.41,101.14,212.42,148.88,319.93,11.94,26.88,23.46,53.94,35.06,81l17.39,40.54,17,40.68c11.27,27.17,22.91,54.18,33.86,81.48l32.88,81.89c21.22,54.87,42.9,109.55,63.1,164.82,10.14,27.61,20.81,55,30.39,82.85l29.11,83.31c37.69,111.48,72.59,223.95,101.74,338l-4.9,1.3-25.06-84.47-6.21-21.13-6.75-21-13.56-41.91-13.48-41.93c-4.47-14-9.46-27.8-14.17-41.71-9.59-27.76-19-55.59-28.73-83.28-39.81-110.52-81.08-220.51-124.62-329.64-22.18-54.39-43.9-109-66.46-163.22l-16.82-40.73-17.15-40.59c-11.42-27.07-22.84-54.13-34.53-81.08q-34.39-81.15-70-161.79-35.22-80.8-71.6-161.1Z"/><path class="cls-4" d="M1539.31,2547.43c-56-109-142.1-189-234.81-229-82.88-35.81-149.44-101.92-184.08-185.3Q1115,2120,1108.29,2107c-67.33-131.09-202-196.2-300.88-145.43s-124.38,198.2-57,329.29a346.13,346.13,0,0,0,48.88,71.69c59.11,66.55,92.42,152.59,89.93,241.56-2.22,79.51,16.64,165.5,58.62,247.22,62.6,121.88,162.87,207.5,267.92,241.56A342.27,342.27,0,0,1,1325.2,3152c54,43.62,121.94,57.07,177.43,28.57,59.86-30.75,88.47-101.72,78.56-177.34-5.61-42.8-2.73-86.13,6.8-128.23C1610.49,2775.59,1595.92,2657.63,1539.31,2547.43Z"/><path class="cls-5" d="M913.65,2083.19c57.42,80,112.22,161.79,166.18,244.15,13.49,20.58,26.66,41.37,39.89,62.13l19.84,31.13,19.59,31.3c13,20.92,26.24,41.66,39,62.72l38.22,63.19c24.94,42.45,50.25,84.69,74.4,127.6,12.11,21.44,24.63,42.64,36.31,64.32l35.31,64.88c46.21,87,90.26,175.14,129.78,265.36l-3.87,1.74-32.12-66.38-8-16.61-8.41-16.41-16.87-32.78-16.81-32.8c-5.58-10.95-11.57-21.69-17.34-32.54-11.68-21.63-23.18-43.34-35-64.89q-71.73-128.85-147.5-255.42c-25.68-41.93-51-84.07-77-125.83l-19.39-31.36-19.65-31.21c-13.09-20.81-26.18-41.62-39.48-62.3q-39.37-62.38-79.67-124.18-40-62-80.9-123.38Z"/><path class="cls-3" d="M1983.91,2059.21c39.69-149,124.3-270.42,227.79-344.44,92.52-66.16,156.76-165.27,177-277.08q3.18-17.62,7.91-35.39c47.73-179.24,196.24-295.3,331.71-259.22s206.6,210.62,158.88,389.85a434.52,434.52,0,0,1-41,101.25c-54.95,97.64-72.86,212.38-45.86,321.16,24.13,97.22,24,208-5.74,319.76-44.37,166.65-144.92,298.74-265.22,368.68a430.7,430.7,0,0,0-119,102c-54.81,68.07-134.94,102.75-211,82.5-82-21.85-136.41-101.52-144.53-197.19-4.6-54.15-19.8-106.69-42.87-155.93C1957.57,2358.88,1943.79,2209.89,1983.91,2059.21Z"/><path class="cls-4" d="M2630.14,1321.12c-49.24,113.74-94.79,229-139.13,344.69-11.1,28.92-21.73,58-32.46,87.08l-16.08,43.6-15.72,43.73c-10.36,29.2-21.13,58.25-31.16,87.56l-30.11,87.94c-19.33,58.87-39.15,117.59-57.38,176.82-9.16,29.61-18.89,59-27.44,88.82l-26.07,89.23c-33.56,119.33-64.13,239.55-88.57,361.09l5.23,1.1,21.74-90.23,5.39-22.57,5.95-22.43,12-44.83,11.89-44.84c3.94-15,8.43-29.76,12.62-44.65,8.57-29.72,16.91-59.51,25.68-89.17,35.83-118.44,73.24-236.4,113.08-353.57,20.37-58.44,40.23-117,61-175.34l15.46-43.76,15.83-43.64c10.53-29.09,21.07-58.19,31.9-87.18q31.74-87.24,64.79-174,32.63-86.92,66.51-173.38Z"/><path class="cls-4" d="M2267,2556.59c61.5-103.55,150.81-176.83,244.17-210.52,83.47-30.12,152.75-91,191.76-170.66q6.17-12.57,13.48-24.91c74-124.54,210-180.28,303.94-124.51s110,201.94,36.08,326.47a339.76,339.76,0,0,1-52.28,67.38c-62,61.72-99.87,144.11-102.8,231.54-2.62,78.13-26.31,161.34-72.42,239-68.77,115.78-172.3,193.72-277.41,220.79a336.55,336.55,0,0,0-111,51.41c-55.6,39.52-123.06,48.62-175.78,17.31-56.87-33.78-80.65-105.12-66.36-178.72,8.08-41.64,7.88-84.32,1.07-126.19C2183.42,2776.11,2204.83,2661.28,2267,2556.59Z"/><path class="cls-6" d="M2908.8,2138.94c-61.16,75-119.86,151.94-177.76,229.47-14.48,19.38-28.65,39-42.88,58.54l-21.35,29.35-21.1,29.52c-14,19.74-28.25,39.28-42,59.18l-41.31,59.67c-27,40.14-54.4,80-80.69,120.69-13.17,20.3-26.74,40.33-39.5,60.9l-38.56,61.51c-50.58,82.53-99.11,166.37-143.32,252.49l3.68,1.93,35.53-63.17,8.84-15.81,9.24-15.59,18.53-31.14,18.47-31.17c6.14-10.4,12.66-20.57,19-30.87,12.76-20.51,25.35-41.12,38.25-61.54q78.15-122.07,160.11-241.66c27.72-39.58,55.1-79.4,83.09-118.79l20.92-29.6,21.16-29.43c14.09-19.62,28.19-39.25,42.49-58.73q42.38-58.82,85.65-117,43-58.39,86.81-116.16Z"/><path class="cls-1" d="M2192.59,2061.51l-83.06-870.25c-199.46-73.72-451,8.67-451,8.67l-38.84,861.58Z"/><path class="cls-7" d="M1797.33,1043.83l-3.74,123.53a28,28,0,0,0,18.73,27.29c31.58,11.14,97,28.08,158.94,5.89a28,28,0,0,0,18.09-30.41l-18.57-126.3Z"/><path class="cls-8" d="M1832.52,2061.51c22-22,34.19-37.71,34.19-37.71l-26-73.71s-212.47,121.41-281.85,60.7,47.7-416.27,47.7-416.27l-169.11-307.87s-142,473.24-94.22,731.85a52.54,52.54,0,0,0,51.61,43Z"/><polygon class="cls-1" points="1795.07 1118.38 1891.61 1210.94 1821.9 1258.49 1760.27 1175.54 1795.07 1118.38"/><polygon class="cls-1" points="1979.96 1118.38 1883.42 1210.94 1953.14 1258.49 2014.77 1175.54 1979.96 1118.38"/><path class="cls-9" d="M1734.16,818.35s21.68,221.14,69.37,277.51c0,0,143.1,13,195.13-17.34,0,0,36.86-110.57,32.52-258,0,0,7.11-134.16-140.92-145.27C1716.81,662.25,1734.16,818.35,1734.16,818.35Z"/><path class="cls-10" d="M2016,887.73s13-39,34.68-39-4.33,104.07-34.68,104.07Z"/><path class="cls-11" d="M1753.89,898s-18.15-36.92-39.64-34,18.33,102.54,48.41,98.44Z"/><path d="M1749.12,935s4.87,132.1,63,199.09a29.86,29.86,0,0,0,21.17,10.12c29.65,1.43,105.46,4,148.21-4.54a30.34,30.34,0,0,0,22.9-19.89c10.51-30.81,28.75-79.4,22.48-190.88L1992,1012c-25.83,68.67-39.85-14.69-51.85-13.72h-78c-8.22.66-17.34,52-47.82,37Z"/><path d="M1972.64,766.31S1862.17,879.94,1741.79,879.5c0,0-68.34-182.56,66.08-212.92s138.76,8.67,138.76,8.67,154.7-38.77,84.77,184.33Z"/><path class="cls-8" d="M2009.28,2061.51h402.58a52.55,52.55,0,0,0,44.56-24.7h0c173.46-277.52-73.71-732.81-73.71-732.81l-130.08,342.55s112.74,112.74,52,290.53-307.86,39-307.86,39l8.67,82.39S2006.8,2059.59,2009.28,2061.51Z"/><polygon points="1877.34 1218.85 1841.32 1243.36 1866.71 1292.74 1908.11 1292.74 1935.77 1246.84 1888.63 1214.59 1877.34 1218.85"/><polygon points="1866.71 1292.74 1838.61 1760.54 1910.07 1889.76 1982 1765.2 1908.11 1292.74 1866.71 1292.74"/><path class="cls-8" d="M1564.22,1594.11a574.08,574.08,0,0,1,43.11,235.49l-6.72,231.91h326l-16.58-330.38-149.8-555.55c-138.76,21.68-322.84,111.07-322.84,111.07Z"/><path class="cls-8" d="M2225.33,2061.51l10-192.4A866.19,866.19,0,0,1,2285,1580l97.74-276c-125.74-112.74-373.37-137.34-373.37-137.34l-99.27,564.47v330.38Z"/><path class="cls-12" d="M1882.61,1711.7a2.43,2.43,0,0,1-1.82-.83l-133.48-153.94a2.38,2.38,0,0,1-.55-1.19l-13.46-82.51-49.4-9.94A2.39,2.39,0,0,1,1682,1461l-10.63-261.21a2.4,2.4,0,0,1,2.3-2.5,2.37,2.37,0,0,1,2.5,2.3L1686.69,1459l49.19,9.89a2.4,2.4,0,0,1,1.89,2l13.62,83.48,133,153.42a2.41,2.41,0,0,1-.24,3.39A2.44,2.44,0,0,1,1882.61,1711.7Z"/><path class="cls-12" d="M1927.37,1711.7a2.36,2.36,0,0,1-1.57-.6,2.43,2.43,0,0,1-.24-3.41l133-154.73,13.61-84.19a2.42,2.42,0,0,1,1.9-2l49.18-10,10.55-261.54a2.35,2.35,0,0,1,2.5-2.32,2.41,2.41,0,0,1,2.29,2.52L2128,1458.91a2.41,2.41,0,0,1-1.92,2.27l-49.4,10-13.46,83.22a2.38,2.38,0,0,1-.55,1.19l-133.48,155.25A2.42,2.42,0,0,1,1927.37,1711.7Z"/><polygon class="cls-13" points="1232.87 2118.82 1269.19 2201.52 2538.34 2201.52 2588.04 2118.82 1232.87 2118.82"/><polygon class="cls-14" points="1365.71 2201.52 1461.28 3203.78 2355.81 3203.78 2455.2 2201.52 1365.71 2201.52"/><path class="cls-15" d="M2352.66,1869.66c-6.34,0-13.23-5.13-13.23-11.46v-127c0-18.73-7.9-36-23.63-46.14l-30-19.89a11.38,11.38,0,0,1-3-15.85,11.67,11.67,0,0,1,16.05-3.41l31.14,19.88a77.89,77.89,0,0,1,36,65.41v127C2365.89,1864.53,2359,1869.66,2352.66,1869.66Z"/><path class="cls-16" d="M2291.42,1585.08a62.8,62.8,0,0,1,6.55,88.57h0a62.8,62.8,0,0,1-88.57,6.54l-110.13-95a62.8,62.8,0,0,1-6.55-88.57h0a62.8,62.8,0,0,1,88.57-6.54Z"/><path class="cls-17" d="M2376.2,1821.12h-44.6c-6.69,0-12,4.27-12,11v98.2h72.77v-98.2C2392.35,1825.39,2382.88,1821.12,2376.2,1821.12Z"/><path class="cls-18" d="M2391.49,1917h-82.83c-10.91,0-22.16,11.16-22.16,22.07v17.63h122.39v-17.63C2408.89,1928.2,2402.4,1917,2391.49,1917Z"/><path class="cls-19" d="M1469.47,1869.66c6.34,0,13.23-5.13,13.23-11.46v-127c0-18.73,8.61-36,24.35-46.14l30.39-19.89a11.42,11.42,0,0,0,3.22-15.85,11.57,11.57,0,0,0-16-3.41l-31.81,19.88c-22.31,14.4-36.65,38.86-36.65,65.41v127C1456.24,1864.53,1463.14,1869.66,1469.47,1869.66Z"/><path class="cls-20" d="M1532.14,1585.08a62.8,62.8,0,0,0-6.55,88.57h0a62.79,62.79,0,0,0,88.57,6.54l110.13-95a62.8,62.8,0,0,0,6.55-88.57h0a62.8,62.8,0,0,0-88.57-6.54Z"/><path class="cls-21" d="M1447.36,1821.12H1492c6.69,0,7.28,4.27,7.28,11v98.2h-72.77v-98.2C1426.47,1825.39,1440.68,1821.12,1447.36,1821.12Z"/><path class="cls-22" d="M1432.07,1917h82.83c10.91,0,17.42,11.16,17.42,22.07v17.63h-125.7v-17.63C1406.62,1928.2,1421.16,1917,1432.07,1917Z"/><polygon class="cls-23" points="1230.01 2125.44 1193.69 1956.74 2627.22 1956.74 2596.64 2125.44 1230.01 2125.44"/><path d="M2504.7,608.75c-175.8,0-318.32,108.64-318.32,242.65,0,37.16,11,72.36,30.56,103.84a67.76,67.76,0,0,1,8.44,52.25c-8.77,34.62-4.17,79.36,35.32,132.45,7.5,10.09,23.42,6.3,25.72-6.06,2.88-15.48,7.85-34.67,16.36-53.19,7.94-17.26,28.16-25.39,45.61-17.88,46.17,19.88,99.5,31.23,156.31,31.23C2680.5,1094,2823,985.41,2823,851.4S2680.5,608.75,2504.7,608.75Z"/><g class="cls-24"><circle class="cls-1" cx="2396.59" cy="907.86" r="30.03" transform="translate(1116.56 3128.08) rotate(-80.78)"/><circle class="cls-1" cx="2504.7" cy="907.86" r="30.03" transform="translate(91.66 2037) rotate(-45)"/><circle class="cls-1" cx="2612.81" cy="907.86" r="30.03" transform="translate(123.32 2113.44) rotate(-45)"/></g><ellipse class="cls-25" cx="2749.75" cy="697.64" rx="318.32" ry="242.64"/><path class="cls-26" d="M2896,878c-41.64,21.54-88.5,33-135.61,35s-94.95-5-139.23-22.26c-5.57-2-11-4.48-16.43-6.86-2.71-1.23-5.35-2.59-8-3.87s-5.34-2.62-7.93-4.07a279.92,279.92,0,0,1-30.39-18.66c-19.34-13.86-37.05-30.26-51.38-49.41A181.18,181.18,0,0,1,2475.71,744c-5.64-23.14-6.79-47.42-1.9-70.49l3.27.52a170.67,170.67,0,0,0-.31,34.34,167.71,167.71,0,0,0,6.83,33.39,162.47,162.47,0,0,0,13.34,31.2,179,179,0,0,0,18.82,28.19A233.48,233.48,0,0,0,2565.64,847a290.05,290.05,0,0,0,60.24,31.75c42.46,16.71,88.43,24,134.25,23.64,45.81-.71,91.81-9.34,134.5-27.37Z"/><g class="cls-24"><circle class="cls-1" cx="2665.1" cy="703.77" r="30.03" transform="translate(1367.84 3135.88) rotate(-76.72)"/><circle class="cls-1" cx="2773.21" cy="703.77" r="30.03" transform="translate(314.61 2167.08) rotate(-45)"/><circle class="cls-1" cx="2881.31" cy="703.77" r="30.03" transform="translate(177.14 1922.25) rotate(-37.98)"/></g></g></svg>